<svg xmlns="http://www.w3.org/2000/svg" xmlns:xlink="http://www.w3.org/1999/xlink" width="500" zoomAndPan="magnify" viewBox="0 0 375 374.999991" height="500" preserveAspectRatio="xMidYMid meet" version="1.0"><path fill="#100f0d" d="M 90.734375 93.054688 C 90.734375 72.835938 107.183594 56.398438 127.398438 56.398438 L 259.714844 56.398438 C 279.925781 56.398438 296.375 72.835938 296.375 93.054688 L 296.375 246.132812 C 296.734375 246.179688 297.078125 246.222656 297.425781 246.277344 C 300.359375 243.558594 304.074219 241.742188 308.09375 241.148438 L 312.40625 231.757812 L 312.40625 93.054688 C 312.40625 64.003906 288.769531 40.371094 259.714844 40.371094 L 127.398438 40.371094 C 98.34375 40.371094 74.707031 64.003906 74.707031 93.054688 L 74.707031 98.980469 L 90.734375 125.050781 L 90.734375 93.054688 " fill-opacity="1" fill-rule="nonzero"/><path fill="#100f0d" d="M 259.714844 320.550781 L 127.398438 320.550781 C 107.183594 320.550781 90.734375 304.101562 90.734375 283.894531 L 90.734375 225.039062 L 74.707031 202.785156 L 74.707031 283.894531 C 74.707031 312.941406 98.34375 336.574219 127.398438 336.574219 L 259.714844 336.574219 C 280.019531 336.574219 297.664062 325.042969 306.449219 308.195312 L 291.863281 301.492188 C 285.636719 312.839844 273.5625 320.550781 259.714844 320.550781 " fill-opacity="1" fill-rule="nonzero"/><path fill="#100f0d" d="M 233.484375 183.960938 L 233.484375 126.113281 L 243.355469 126.113281 C 249.082031 126.113281 251.511719 118.804688 246.917969 115.382812 L 197.113281 78.25 C 195.003906 76.679688 192.109375 76.679688 190 78.25 L 140.195312 115.382812 C 135.597656 118.804688 138.027344 126.113281 143.753906 126.113281 L 153.628906 126.113281 L 153.628906 183.960938 L 181.332031 183.960938 L 181.332031 157.070312 C 181.332031 153.699219 182.699219 150.640625 184.921875 148.429688 C 187.128906 146.21875 190.179688 144.851562 193.5625 144.851562 C 200.300781 144.851562 205.78125 150.328125 205.78125 157.070312 L 205.78125 183.960938 L 233.484375 183.960938 " fill-opacity="1" fill-rule="nonzero"/><path fill="#100f0d" d="M 271.277344 200.207031 L 129.140625 200.207031 L 130.410156 203.121094 C 132.039062 203.878906 133.652344 204.800781 135.261719 205.898438 C 137.773438 207.597656 139.699219 209.304688 141.355469 211.277344 C 141.554688 211.523438 141.765625 211.789062 141.976562 212.0625 L 271.277344 212.0625 C 274.546875 212.0625 277.207031 209.402344 277.207031 206.136719 C 277.207031 202.867188 274.546875 200.207031 271.277344 200.207031 " fill-opacity="1" fill-rule="nonzero"/><path fill="#100f0d" d="M 275.46875 237.273438 C 276.539062 236.199219 277.207031 234.726562 277.207031 233.082031 C 277.207031 229.8125 274.546875 227.15625 271.277344 227.15625 L 146.953125 227.15625 C 147.136719 229.90625 147.425781 233.894531 147.828125 239.011719 L 271.277344 239.011719 C 272.914062 239.011719 274.390625 238.351562 275.46875 237.273438 " fill-opacity="1" fill-rule="nonzero"/><path fill="#100f0d" d="M 149.226562 256.433594 C 149.511719 259.839844 148.523438 263.238281 146.515625 265.957031 L 262.589844 265.957031 L 263.222656 264.570312 C 265.085938 260.515625 267.734375 256.980469 270.949219 254.105469 L 149.035156 254.105469 C 149.097656 254.871094 149.164062 255.648438 149.226562 256.433594 " fill-opacity="1" fill-rule="nonzero"/><path fill="#100f0d" d="M 115.835938 292.90625 L 271.277344 292.90625 C 271.78125 292.90625 272.273438 292.84375 272.738281 292.722656 L 270.007812 291.472656 C 265.414062 289.371094 262.191406 285.511719 260.730469 281.054688 L 115.835938 281.054688 C 112.566406 281.054688 109.90625 283.710938 109.90625 286.980469 C 109.90625 290.25 112.566406 292.90625 115.835938 292.90625 " fill-opacity="1" fill-rule="nonzero"/><path fill="#100f0d" d="M 46.839844 74.9375 C 43.023438 68.609375 33.449219 53.15625 33.386719 53.054688 C 31.542969 50.050781 28.601562 49.121094 25.367188 49.09375 C 22.5625 49.066406 20.089844 49.75 18.042969 50.929688 C 15.988281 52.078125 14.125 53.851562 12.707031 56.269531 C 11.074219 59.054688 10.371094 62.070312 11.996094 65.183594 C 12.050781 65.292969 20.398438 81.4375 23.878906 87.957031 C 39.359375 117.636719 54.878906 147.371094 70.542969 177.40625 C 75.539062 174.566406 94.671875 163.707031 99.675781 160.886719 C 81.929688 132.027344 64.367188 103.457031 46.839844 74.9375 " fill-opacity="1" fill-rule="nonzero"/><path fill="#100f0d" d="M 118.628906 203.988281 C 118.628906 203.988281 107.632812 178.539062 102.160156 165.855469 C 97.265625 168.628906 92.554688 171.304688 87.847656 173.972656 C 83.144531 176.640625 78.421875 179.3125 73.539062 182.082031 C 81.613281 193.296875 97.8125 215.789062 97.8125 215.789062 L 118.628906 203.988281 " fill-opacity="1" fill-rule="nonzero"/><path fill="#100f0d" d="M 138.121094 257.355469 C 137.324219 247.703125 135.855469 229.539062 135.625 224.515625 C 135.554688 222.808594 134.265625 220.199219 132.785156 218.425781 C 131.699219 217.121094 130.402344 216.070312 128.996094 215.121094 C 126.375 213.339844 123.398438 211.941406 120.199219 211.707031 C 116.785156 211.449219 113.367188 212.535156 110.410156 214.253906 C 108.179688 215.550781 106.136719 217.230469 104.671875 219.347656 C 103.019531 221.75 102.160156 224.644531 101.996094 227.558594 C 101.898438 229.246094 102.023438 230.945312 102.316406 232.617188 C 102.636719 234.390625 103.183594 236.207031 104.015625 237.804688 C 105.074219 239.851562 124.164062 253.347656 133.589844 259.949219 C 135.589844 261.347656 138.3125 259.785156 138.121094 257.355469 " fill-opacity="1" fill-rule="nonzero"/><path fill="#100f0d" d="M 350.820312 198.191406 C 341.378906 193.851562 330.207031 197.988281 325.867188 207.441406 C 323.019531 213.640625 323.832031 220.582031 327.394531 225.839844 L 314.917969 253.027344 L 314.605469 252.890625 C 313.894531 252.5625 313.15625 252.332031 312.40625 252.214844 C 308.625 251.574219 304.726562 253.519531 303.042969 257.183594 L 302.039062 259.390625 L 301.0625 258.945312 C 299.527344 258.242188 297.957031 257.738281 296.375 257.421875 C 287.117188 255.601562 277.46875 260.261719 273.371094 269.21875 L 271.597656 273.070312 C 270.15625 276.195312 271.535156 279.902344 274.65625 281.335938 L 295.683594 290.980469 L 310.542969 297.800781 L 337.449219 310.136719 C 340.582031 311.574219 344.28125 310.203125 345.714844 307.070312 L 347.488281 303.226562 C 352.300781 292.742188 347.699219 280.332031 337.210938 275.519531 L 336.246094 275.070312 L 337.257812 272.871094 C 339.265625 268.488281 337.347656 263.320312 332.964844 261.300781 L 332.65625 261.164062 L 345.132812 233.988281 C 351.441406 233.257812 357.234375 229.339844 360.082031 223.136719 C 364.410156 213.6875 360.265625 202.519531 350.820312 198.191406 " fill-opacity="1" fill-rule="nonzero"/></svg>