<svg xmlns="http://www.w3.org/2000/svg" xmlns:xlink="http://www.w3.org/1999/xlink" width="500" zoomAndPan="magnify" viewBox="0 0 375 374.999991" height="500" preserveAspectRatio="xMidYMid meet" version="1.0"><defs><clipPath id="7123f00ad2"><path d="M 9.375 9.375 L 365.625 9.375 L 365.625 365.625 L 9.375 365.625 Z M 9.375 9.375 " clip-rule="nonzero"/></clipPath><clipPath id="4944b8857c"><path d="M 157 211 L 313 211 L 313 365.625 L 157 365.625 Z M 157 211 " clip-rule="nonzero"/></clipPath></defs><g clip-path="url(#7123f00ad2)"><path fill="#100f0d" d="M 353.75 353.75 L 335.9375 353.75 L 335.9375 145.9375 C 335.9375 142.667969 333.269531 140 330 140 L 45 140 C 41.730469 140 39.0625 142.667969 39.0625 145.9375 L 39.0625 353.75 L 21.25 353.75 L 21.25 113.816406 L 187.40625 22.15625 L 353.75 119.660156 Z M 50.9375 187.5 L 50.9375 175.625 L 324.0625 175.625 L 324.0625 187.5 Z M 324.0625 163.75 L 50.9375 163.75 L 50.9375 151.875 L 324.0625 151.875 Z M 362.703125 111.125 L 190.515625 10.1875 C 188.707031 9.144531 186.480469 9.097656 184.625 10.117188 L 12.4375 105.117188 C 10.558594 106.160156 9.375 108.15625 9.375 110.3125 L 9.375 359.6875 C 9.375 362.957031 12.042969 365.625 15.3125 365.625 L 45 365.625 C 48.269531 365.625 50.9375 362.957031 50.9375 359.6875 L 50.9375 199.375 L 324.0625 199.375 L 324.0625 359.6875 C 324.0625 362.957031 326.730469 365.625 330 365.625 L 359.6875 365.625 C 362.957031 365.625 365.625 362.957031 365.625 359.6875 L 365.625 116.25 C 365.625 114.140625 364.511719 112.191406 362.703125 111.125 " fill-opacity="1" fill-rule="nonzero"/></g><g clip-path="url(#4944b8857c)"><path fill="#100f0d" d="M 169.6875 294.375 L 181.5625 294.375 L 181.5625 312.1875 C 181.5625 315.457031 184.230469 318.125 187.5 318.125 L 211.25 318.125 C 214.519531 318.125 217.1875 315.457031 217.1875 312.1875 L 217.1875 294.375 L 229.0625 294.375 L 229.0625 353.75 L 169.6875 353.75 Z M 193.4375 294.375 L 205.3125 294.375 L 205.3125 306.25 L 193.4375 306.25 Z M 240.9375 223.125 L 252.8125 223.125 L 252.8125 240.9375 C 252.8125 244.207031 255.480469 246.875 258.75 246.875 L 282.5 246.875 C 285.769531 246.875 288.4375 244.207031 288.4375 240.9375 L 288.4375 223.125 L 300.3125 223.125 L 300.3125 282.5 L 240.9375 282.5 Z M 264.6875 223.125 L 276.5625 223.125 L 276.5625 235 L 264.6875 235 Z M 264.6875 294.375 L 276.5625 294.375 L 276.5625 306.25 L 264.6875 306.25 Z M 300.3125 353.75 L 240.9375 353.75 L 240.9375 294.375 L 252.8125 294.375 L 252.8125 312.1875 C 252.8125 315.457031 255.480469 318.125 258.75 318.125 L 282.5 318.125 C 285.769531 318.125 288.4375 315.457031 288.4375 312.1875 L 288.4375 294.375 L 300.3125 294.375 Z M 235 365.625 L 306.25 365.625 C 309.519531 365.625 312.1875 362.957031 312.1875 359.6875 L 312.1875 217.1875 C 312.1875 213.917969 309.519531 211.25 306.25 211.25 L 235 211.25 C 231.730469 211.25 229.0625 213.917969 229.0625 217.1875 L 229.0625 282.5 L 163.75 282.5 C 160.480469 282.5 157.8125 285.167969 157.8125 288.4375 L 157.8125 359.6875 C 157.8125 362.957031 160.480469 365.625 163.75 365.625 L 235 365.625 " fill-opacity="1" fill-rule="nonzero"/></g><path fill="#100f0d" d="M 163.75 104.375 L 211.25 104.375 L 211.25 116.25 L 163.75 116.25 Z M 151.875 98.4375 L 151.875 122.1875 C 151.875 125.457031 154.542969 128.125 157.8125 128.125 L 217.1875 128.125 C 220.457031 128.125 223.125 125.457031 223.125 122.1875 L 223.125 98.4375 C 223.125 95.167969 220.457031 92.5 217.1875 92.5 L 157.8125 92.5 C 154.542969 92.5 151.875 95.167969 151.875 98.4375 " fill-opacity="1" fill-rule="nonzero"/></svg>