<svg xmlns="http://www.w3.org/2000/svg" xmlns:xlink="http://www.w3.org/1999/xlink" width="500" zoomAndPan="magnify" viewBox="0 0 375 374.999991" height="500" preserveAspectRatio="xMidYMid meet" version="1.0"><defs><clipPath id="d20e26dd36"><path d="M 9.035156 281 L 94 281 L 94 317 L 9.035156 317 Z M 9.035156 281 " clip-rule="nonzero"/></clipPath><clipPath id="2d22e4c6b0"><path d="M 95 215 L 326 215 L 326 333.660156 L 95 333.660156 Z M 95 215 " clip-rule="nonzero"/></clipPath><clipPath id="8f9e9f6b02"><path d="M 327 281 L 366.035156 281 L 366.035156 317 L 327 317 Z M 327 281 " clip-rule="nonzero"/></clipPath><clipPath id="1ca5e0bf1a"><path d="M 21 41.160156 L 366.035156 41.160156 L 366.035156 276 L 21 276 Z M 21 41.160156 " clip-rule="nonzero"/></clipPath></defs><g clip-path="url(#d20e26dd36)"><path fill="#000000" d="M 14.992188 281.824219 C 11.707031 281.824219 9.035156 284.480469 9.035156 287.75 L 9.035156 310.210938 C 9.035156 313.480469 11.707031 316.136719 14.992188 316.136719 L 90.09375 316.136719 C 89.785156 313.300781 89.578125 310.449219 89.578125 307.585938 C 89.578125 298.667969 91.097656 290.035156 93.886719 281.820312 L 14.992188 281.820312 Z M 14.992188 281.824219 " fill-opacity="1" fill-rule="nonzero"/></g><path fill="#000000" d="M 29.453125 230.546875 C 29.4375 230.34375 29.269531 230.191406 29.058594 230.191406 L 19.796875 230.191406 C 18.410156 235.339844 17.675781 240.726562 17.675781 246.246094 L 17.675781 271.097656 C 21.398438 266.210938 24.363281 260.746094 26.386719 254.984375 C 29.109375 247.230469 30.171875 238.78125 29.453125 230.546875 Z M 29.453125 230.546875 " fill-opacity="1" fill-rule="nonzero"/><g clip-path="url(#2d22e4c6b0)"><path fill="#000000" d="M 210.574219 215.847656 C 147.082031 215.847656 95.425781 257 95.425781 307.585938 C 95.425781 315.089844 96.570312 322.554688 98.820312 329.769531 C 99.480469 331.878906 101.523438 333.351562 103.785156 333.351562 L 137.488281 333.351562 C 139.265625 333.351562 140.84375 332.507812 141.816406 331.039062 C 142.789062 329.566406 142.949219 327.792969 142.253906 326.160156 C 139.617188 319.972656 138.363281 313.695312 138.53125 307.507812 C 139.359375 277.5625 174.371094 249.25 210.574219 249.25 C 246.777344 249.25 281.785156 277.5625 282.613281 307.507812 C 282.785156 313.695312 281.53125 319.972656 278.894531 326.160156 C 278.203125 327.792969 278.359375 329.566406 279.332031 331.039062 C 280.304688 332.507812 281.878906 333.351562 283.660156 333.351562 L 317.363281 333.351562 C 319.625 333.351562 321.671875 331.878906 322.328125 329.769531 C 324.578125 322.554688 325.722656 315.089844 325.722656 307.585938 C 325.722656 257 274.0625 215.847656 210.574219 215.847656 Z M 210.574219 215.847656 " fill-opacity="1" fill-rule="nonzero"/></g><g clip-path="url(#8f9e9f6b02)"><path fill="#000000" d="M 331.574219 307.585938 C 331.574219 310.449219 331.363281 313.296875 331.058594 316.136719 L 366.035156 316.136719 L 366.035156 281.824219 L 327.261719 281.824219 C 330.050781 290.039062 331.574219 298.667969 331.574219 307.585938 Z M 331.574219 307.585938 " fill-opacity="1" fill-rule="nonzero"/></g><g clip-path="url(#1ca5e0bf1a)"><path fill="#000000" d="M 314.382812 115.605469 C 304.273438 130.113281 289.132812 140.042969 271.765625 143.574219 L 67.863281 185.03125 C 46.308594 189.410156 29.132812 204.691406 21.6875 224.34375 L 29.0625 224.34375 C 32.324219 224.34375 35 226.789062 35.285156 230.035156 C 36.078125 239.097656 34.910156 248.386719 31.914062 256.917969 C 29.5 263.789062 25.863281 270.273438 21.269531 275.976562 L 96.132812 275.976562 C 112.457031 237.640625 157.578125 210 210.578125 210 C 263.582031 210 308.703125 237.640625 325.027344 275.976562 L 366.035156 275.976562 L 366.035156 41.511719 Z M 345.921875 189.972656 L 282.566406 189.972656 L 282.566406 167.023438 L 345.921875 167.023438 Z M 345.921875 189.972656 " fill-opacity="1" fill-rule="nonzero"/></g></svg>