<svg xmlns="http://www.w3.org/2000/svg" xmlns:xlink="http://www.w3.org/1999/xlink" width="500" zoomAndPan="magnify" viewBox="0 0 375 374.999991" height="500" preserveAspectRatio="xMidYMid meet" version="1.0"><defs><clipPath id="54e1c33fdd"><path d="M 156.714844 37.5 L 242 37.5 L 242 123 L 156.714844 123 Z M 156.714844 37.5 " clip-rule="nonzero"/></clipPath><clipPath id="3438e938b4"><path d="M 247 128 L 338 128 L 338 217.5 L 247 217.5 Z M 247 128 " clip-rule="nonzero"/></clipPath><clipPath id="09d3dcdbae"><path d="M 37.5 112.664062 L 149 112.664062 L 149 224 L 37.5 224 Z M 37.5 112.664062 " clip-rule="nonzero"/></clipPath><clipPath id="ffeaebbac3"><path d="M 156 232 L 274 232 L 274 348.914062 L 156 348.914062 Z M 156 232 " clip-rule="nonzero"/></clipPath></defs><g clip-path="url(#54e1c33fdd)"><path fill="#000000" d="M 199.179688 122.269531 C 187.847656 122.269531 177.152344 117.832031 169.105469 109.804688 C 161.058594 101.878906 156.714844 91.210938 156.714844 79.90625 C 156.714844 68.601562 161.058594 57.929688 169.105469 49.898438 C 177.152344 41.871094 187.847656 37.539062 199.179688 37.539062 C 210.511719 37.539062 221.207031 41.871094 229.148438 49.898438 C 237.199219 57.929688 241.644531 68.601562 241.644531 79.90625 C 241.644531 91.210938 237.199219 101.878906 229.148438 109.804688 C 221.207031 117.832031 210.511719 122.269531 199.179688 122.269531 Z M 199.179688 41.765625 C 188.910156 41.765625 179.378906 45.671875 172.070312 52.859375 C 164.871094 60.148438 160.953125 69.65625 160.953125 79.90625 C 160.953125 90.046875 164.871094 99.660156 172.070312 106.84375 C 179.378906 114.03125 188.910156 118.042969 199.179688 118.042969 C 209.347656 118.042969 218.984375 114.03125 226.183594 106.84375 C 233.386719 99.660156 237.410156 90.046875 237.410156 79.90625 C 237.410156 69.65625 233.386719 60.148438 226.183594 52.859375 C 218.984375 45.671875 209.347656 41.765625 199.179688 41.765625 Z M 199.179688 41.765625 " fill-opacity="1" fill-rule="evenodd"/></g><path fill="#000000" d="M 199.179688 112.761719 C 190.285156 112.761719 182.023438 109.382812 175.777344 103.148438 C 162.964844 90.363281 162.964844 69.445312 175.777344 56.554688 C 182.023438 50.429688 190.285156 46.941406 199.179688 46.941406 C 207.96875 46.941406 216.230469 50.429688 222.476562 56.554688 C 235.292969 69.445312 235.292969 90.363281 222.476562 103.148438 C 216.230469 109.382812 207.96875 112.761719 199.179688 112.761719 Z M 199.179688 51.167969 C 191.449219 51.167969 184.25 54.125 178.847656 59.621094 C 167.625 70.820312 167.625 88.992188 178.847656 100.1875 C 184.25 105.578125 191.449219 108.535156 199.179688 108.535156 C 206.804688 108.535156 214.007812 105.578125 219.511719 100.1875 C 230.738281 88.992188 230.738281 70.820312 219.511719 59.621094 C 214.007812 54.125 206.804688 51.167969 199.179688 51.167969 Z M 199.179688 51.167969 " fill-opacity="1" fill-rule="evenodd"/><path fill="#000000" d="M 246.730469 129.453125 C 246.199219 129.453125 245.667969 129.242188 245.246094 128.820312 L 234.019531 117.726562 C 233.28125 116.882812 233.28125 115.507812 234.019531 114.664062 C 234.867188 113.925781 236.246094 113.925781 237.09375 114.664062 L 248.210938 125.863281 C 249.058594 126.707031 249.058594 128.082031 248.210938 128.820312 C 247.789062 129.242188 247.257812 129.453125 246.730469 129.453125 Z M 246.730469 129.453125 " fill-opacity="1" fill-rule="evenodd"/><path fill="#000000" d="M 232.644531 123.75 C 229.890625 123.75 227.347656 122.585938 225.335938 120.683594 L 219.726562 115.085938 C 219.300781 114.664062 219.089844 114.03125 219.089844 113.394531 C 219.195312 112.761719 219.511719 112.128906 220.042969 111.8125 C 222.265625 110.4375 224.277344 108.746094 226.183594 106.84375 C 228.089844 104.945312 229.679688 102.9375 231.160156 100.71875 C 231.480469 100.1875 232.113281 99.871094 232.75 99.765625 C 233.386719 99.765625 234.019531 99.976562 234.445312 100.402344 L 240.058594 106 C 241.964844 108.007812 243.128906 110.542969 243.128906 113.394531 C 243.128906 116.140625 241.964844 118.679688 240.058594 120.683594 C 238.046875 122.585938 235.503906 123.75 232.644531 123.75 Z M 224.488281 113.925781 L 228.300781 117.726562 C 229.46875 118.890625 231.054688 119.523438 232.644531 119.523438 C 234.339844 119.523438 235.925781 118.890625 237.09375 117.726562 C 238.257812 116.566406 238.890625 114.980469 238.890625 113.394531 C 238.890625 111.707031 238.257812 110.121094 237.09375 108.957031 L 233.171875 105.15625 C 232.007812 106.84375 230.632812 108.429688 229.148438 109.804688 C 227.667969 111.28125 226.183594 112.65625 224.488281 113.925781 Z M 224.488281 113.925781 " fill-opacity="1" fill-rule="evenodd"/><path fill="#000000" d="M 253.507812 142.449219 C 251.28125 142.449219 249.164062 141.605469 247.574219 140.019531 L 242.28125 134.738281 C 240.691406 133.152344 239.84375 131.039062 239.84375 128.820312 C 239.84375 126.601562 240.691406 124.488281 242.28125 122.902344 C 243.871094 121.320312 245.988281 120.472656 248.210938 120.472656 C 250.433594 120.472656 252.554688 121.320312 254.140625 122.902344 L 259.4375 128.1875 C 262.71875 131.460938 262.71875 136.746094 259.4375 140.019531 C 257.847656 141.605469 255.730469 142.449219 253.507812 142.449219 Z M 248.210938 124.699219 C 247.046875 124.699219 245.988281 125.121094 245.246094 125.863281 C 244.503906 126.601562 244.082031 127.660156 244.082031 128.820312 C 244.082031 129.984375 244.503906 130.933594 245.246094 131.777344 L 250.539062 137.0625 C 251.28125 137.800781 252.339844 138.222656 253.507812 138.222656 C 254.566406 138.222656 255.625 137.800781 256.472656 137.0625 C 258.058594 135.371094 258.058594 132.730469 256.472656 131.144531 L 251.175781 125.863281 C 250.328125 125.121094 249.269531 124.699219 248.210938 124.699219 Z M 248.210938 124.699219 " fill-opacity="1" fill-rule="evenodd"/><path fill="#000000" d="M 265.789062 148.472656 C 265.261719 148.472656 264.730469 148.261719 264.308594 147.835938 L 253.082031 136.640625 C 252.234375 135.898438 252.234375 134.527344 253.082031 133.679688 C 253.929688 132.835938 255.304688 132.835938 256.046875 133.679688 L 267.273438 144.878906 C 268.121094 145.726562 268.121094 146.992188 267.273438 147.835938 C 266.847656 148.261719 266.320312 148.472656 265.789062 148.472656 Z M 265.789062 148.472656 " fill-opacity="1" fill-rule="evenodd"/><g clip-path="url(#3438e938b4)"><path fill="#000000" d="M 296.925781 217.460938 C 291.734375 217.460938 286.757812 215.453125 283.050781 211.757812 L 255.304688 183.96875 C 245.457031 174.25 245.457031 158.296875 255.304688 148.578125 L 268.015625 135.898438 C 272.671875 131.144531 279.027344 128.609375 285.804688 128.609375 C 292.476562 128.609375 298.832031 131.144531 303.488281 135.898438 L 331.339844 163.683594 C 338.964844 171.292969 338.964844 183.652344 331.339844 191.261719 L 310.796875 211.757812 C 307.195312 215.453125 302.21875 217.460938 296.925781 217.460938 Z M 285.804688 132.835938 C 280.191406 132.835938 274.898438 134.949219 270.980469 138.855469 L 258.273438 151.535156 C 250.117188 159.671875 250.117188 172.875 258.273438 181.011719 L 286.121094 208.796875 C 288.980469 211.652344 292.792969 213.234375 296.925781 213.234375 C 301.054688 213.234375 304.972656 211.652344 307.832031 208.796875 L 328.375 188.300781 C 334.304688 182.386719 334.304688 172.558594 328.375 166.644531 L 300.523438 138.855469 C 296.605469 134.949219 291.3125 132.835938 285.804688 132.835938 Z M 285.804688 132.835938 " fill-opacity="1" fill-rule="evenodd"/></g><g clip-path="url(#09d3dcdbae)"><path fill="#000000" d="M 93.070312 223.925781 C 78.242188 223.925781 64.246094 218.101562 53.714844 207.5625 C 43.183594 197.160156 37.5 183.15625 37.5 168.320312 C 37.5 153.480469 43.183594 139.476562 53.714844 128.9375 C 64.246094 118.398438 78.242188 112.714844 93.070312 112.714844 C 107.898438 112.714844 121.898438 118.398438 132.289062 128.9375 C 142.824219 139.476562 148.644531 153.480469 148.644531 168.320312 C 148.644531 183.15625 142.824219 197.160156 132.289062 207.5625 C 121.898438 218.101562 107.898438 223.925781 93.070312 223.925781 Z M 93.070312 118.261719 C 79.628906 118.261719 67.15625 123.390625 57.59375 132.820312 C 48.171875 142.390625 43.042969 154.867188 43.042969 168.320312 C 43.042969 181.632812 48.171875 194.25 57.59375 203.679688 C 67.15625 213.109375 79.628906 218.378906 93.070312 218.378906 C 106.375 218.378906 118.988281 213.109375 128.410156 203.679688 C 137.832031 194.25 143.101562 181.632812 143.101562 168.320312 C 143.101562 154.867188 137.832031 142.390625 128.410156 132.820312 C 118.988281 123.390625 106.375 118.261719 93.070312 118.261719 Z M 93.070312 118.261719 " fill-opacity="1" fill-rule="evenodd"/></g><path fill="#000000" d="M 93.070312 211.445312 C 81.429688 211.445312 70.621094 207.007812 62.445312 198.824219 C 45.675781 182.046875 45.675781 154.589844 62.445312 137.675781 C 70.621094 129.632812 81.429688 125.054688 93.070312 125.054688 C 104.574219 125.054688 115.382812 129.632812 123.558594 137.675781 C 140.328125 154.589844 140.328125 182.046875 123.558594 198.824219 C 115.382812 207.007812 104.574219 211.445312 93.070312 211.445312 Z M 93.070312 130.601562 C 82.953125 130.601562 73.53125 134.484375 66.464844 141.695312 C 51.773438 156.394531 51.773438 180.246094 66.464844 194.941406 C 73.53125 202.015625 82.953125 205.898438 93.070312 205.898438 C 103.050781 205.898438 112.472656 202.015625 119.679688 194.941406 C 134.367188 180.246094 134.367188 156.394531 119.679688 141.695312 C 112.472656 134.484375 103.050781 130.601562 93.070312 130.601562 Z M 93.070312 130.601562 " fill-opacity="1" fill-rule="evenodd"/><path fill="#000000" d="M 155.292969 233.351562 C 154.601562 233.351562 153.910156 233.074219 153.355469 232.519531 L 138.664062 217.960938 C 137.695312 216.851562 137.695312 215.050781 138.664062 213.941406 C 139.773438 212.96875 141.574219 212.96875 142.683594 213.941406 L 157.234375 228.636719 C 158.34375 229.746094 158.34375 231.550781 157.234375 232.519531 C 156.679688 233.074219 155.988281 233.351562 155.292969 233.351562 Z M 155.292969 233.351562 " fill-opacity="1" fill-rule="evenodd"/><path fill="#000000" d="M 136.863281 225.867188 C 133.261719 225.867188 129.933594 224.339844 127.300781 221.84375 L 119.957031 214.496094 C 119.402344 213.941406 119.125 213.109375 119.125 212.277344 C 119.261719 211.445312 119.679688 210.613281 120.371094 210.195312 C 123.28125 208.394531 125.914062 206.175781 128.410156 203.679688 C 130.90625 201.183594 132.984375 198.546875 134.921875 195.636719 C 135.339844 194.941406 136.171875 194.527344 137.003906 194.386719 C 137.832031 194.386719 138.664062 194.664062 139.21875 195.21875 L 146.5625 202.570312 C 149.058594 205.203125 150.582031 208.53125 150.582031 212.277344 C 150.582031 215.882812 149.058594 219.210938 146.5625 221.84375 C 143.929688 224.339844 140.605469 225.867188 136.863281 225.867188 Z M 126.191406 212.96875 L 131.179688 217.960938 C 132.707031 219.488281 134.785156 220.320312 136.863281 220.320312 C 139.082031 220.320312 141.160156 219.488281 142.683594 217.960938 C 144.207031 216.4375 145.039062 214.355469 145.039062 212.277344 C 145.039062 210.058594 144.207031 207.976562 142.683594 206.453125 L 137.554688 201.460938 C 136.03125 203.679688 134.230469 205.757812 132.289062 207.5625 C 130.351562 209.503906 128.410156 211.304688 126.191406 212.96875 Z M 126.191406 212.96875 " fill-opacity="1" fill-rule="evenodd"/><path fill="#000000" d="M 164.164062 250.410156 C 161.253906 250.410156 158.480469 249.300781 156.402344 247.21875 L 149.472656 240.285156 C 147.394531 238.207031 146.285156 235.433594 146.285156 232.519531 C 146.285156 229.609375 147.394531 226.835938 149.472656 224.757812 C 151.554688 222.675781 154.324219 221.566406 157.234375 221.566406 C 160.144531 221.566406 162.917969 222.675781 164.996094 224.757812 L 171.925781 231.6875 C 176.222656 235.988281 176.222656 242.921875 171.925781 247.21875 C 169.847656 249.300781 167.074219 250.410156 164.164062 250.410156 Z M 157.234375 227.113281 C 155.710938 227.113281 154.324219 227.667969 153.355469 228.636719 C 152.382812 229.609375 151.832031 230.996094 151.832031 232.519531 C 151.832031 234.046875 152.382812 235.292969 153.355469 236.402344 L 160.285156 243.335938 C 161.253906 244.308594 162.640625 244.863281 164.164062 244.863281 C 165.550781 244.863281 166.9375 244.308594 168.042969 243.335938 C 170.125 241.117188 170.125 237.652344 168.042969 235.570312 L 161.117188 228.636719 C 160.007812 227.667969 158.621094 227.113281 157.234375 227.113281 Z M 157.234375 227.113281 " fill-opacity="1" fill-rule="evenodd"/><path fill="#000000" d="M 180.238281 258.3125 C 179.546875 258.3125 178.855469 258.035156 178.300781 257.480469 L 163.609375 242.78125 C 162.5 241.8125 162.5 240.007812 163.609375 238.898438 C 164.71875 237.789062 166.519531 237.789062 167.488281 238.898438 L 182.179688 253.597656 C 183.289062 254.707031 183.289062 256.371094 182.179688 257.480469 C 181.625 258.035156 180.933594 258.3125 180.238281 258.3125 Z M 180.238281 258.3125 " fill-opacity="1" fill-rule="evenodd"/><g clip-path="url(#ffeaebbac3)"><path fill="#000000" d="M 220.984375 348.859375 C 214.191406 348.859375 207.679688 346.226562 202.828125 341.375 L 166.519531 304.90625 C 153.632812 292.148438 153.632812 271.207031 166.519531 258.453125 L 183.148438 241.8125 C 189.246094 235.570312 197.5625 232.242188 206.433594 232.242188 C 215.164062 232.242188 223.476562 235.570312 229.574219 241.8125 L 266.023438 278.28125 C 276 288.265625 276 304.488281 266.023438 314.472656 L 239.136719 341.375 C 234.425781 346.226562 227.910156 348.859375 220.984375 348.859375 Z M 206.433594 237.789062 C 199.085938 237.789062 192.15625 240.5625 187.03125 245.695312 L 170.398438 262.335938 C 159.730469 273.011719 159.730469 290.34375 170.398438 301.023438 L 206.847656 337.492188 C 210.589844 341.234375 215.578125 343.316406 220.984375 343.316406 C 226.386719 343.316406 231.515625 341.234375 235.257812 337.492188 L 262.140625 310.589844 C 269.902344 302.824219 269.902344 289.929688 262.140625 282.164062 L 225.695312 245.695312 C 220.566406 240.5625 213.636719 237.789062 206.433594 237.789062 Z M 206.433594 237.789062 " fill-opacity="1" fill-rule="evenodd"/></g></svg>