<svg xmlns="http://www.w3.org/2000/svg" xmlns:xlink="http://www.w3.org/1999/xlink" width="500" zoomAndPan="magnify" viewBox="0 0 375 374.999991" height="500" preserveAspectRatio="xMidYMid meet" version="1.0"><defs><clipPath id="e8d1b48dc5"><path d="M 214 8.507812 L 316.257812 8.507812 L 316.257812 101 L 214 101 Z M 214 8.507812 " clip-rule="nonzero"/></clipPath><clipPath id="86111b188e"><path d="M 59 187 L 218 187 L 218 365.507812 L 59 365.507812 Z M 59 187 " clip-rule="nonzero"/></clipPath></defs><path fill="#000000" d="M 209.425781 143.21875 C 205.53125 149.355469 198.015625 152.703125 190.5 150.75 C 189.386719 151.027344 187.160156 152.703125 184.375 155.769531 C 188.550781 158 193.003906 159.117188 197.738281 159.117188 C 205.25 159.117188 212.210938 156.328125 217.5 151.027344 C 222.789062 145.730469 225.847656 138.757812 225.847656 131.226562 C 225.847656 123.695312 222.789062 116.722656 217.5 111.421875 C 212.488281 106.125 205.25 103.335938 197.738281 103.335938 C 190.222656 103.335938 183.261719 106.125 177.972656 111.421875 C 174.632812 114.769531 172.128906 118.953125 170.738281 123.417969 C 176.304688 119.789062 182.429688 117.839844 188.273438 117.28125 C 191.054688 115.328125 194.398438 114.492188 197.738281 114.492188 C 202.191406 114.492188 206.367188 116.164062 209.707031 119.511719 C 216.386719 125.925781 216.386719 136.523438 209.707031 143.21875 C 209.707031 143.21875 209.707031 143.21875 209.425781 143.21875 Z M 209.425781 143.21875 " fill-opacity="1" fill-rule="nonzero"/><path fill="#000000" d="M 183.542969 83.53125 L 122.027344 21.335938 C 120.355469 19.382812 118.128906 17.988281 115.625 17.433594 L 98.925781 14.363281 C 98.089844 14.085938 97.253906 14.085938 96.421875 14.085938 C 93.636719 14.085938 91.132812 15.199219 88.90625 16.875 C 86.398438 19.105469 85.007812 22.453125 85.285156 26.078125 L 86.957031 48.390625 C 87.234375 50.902344 88.347656 53.410156 90.019531 55.363281 L 92.523438 58.152344 C 94.75 60.382812 97.535156 61.5 100.59375 61.5 C 100.59375 61.5 100.875 61.5 100.875 61.5 L 107.832031 61.21875 L 107.832031 65.960938 C 107.832031 69.03125 109.222656 72.097656 111.449219 74.050781 C 113.398438 76.003906 116.183594 76.839844 118.964844 76.839844 C 119.242188 76.839844 119.800781 76.839844 120.078125 76.839844 L 123.699219 76.558594 L 123.417969 78.792969 C 123.417969 79.347656 123.140625 80.1875 123.417969 80.742188 C 123.417969 81.023438 123.417969 81.023438 123.140625 81.300781 C 121.472656 87.160156 124.8125 93.292969 130.65625 94.96875 C 131.769531 95.246094 132.882812 95.527344 133.996094 95.527344 C 135.667969 95.527344 137.335938 95.246094 138.726562 94.410156 L 138.726562 100.824219 C 138.726562 103.894531 139.839844 106.683594 142.066406 108.632812 L 149.304688 116.164062 C 146.800781 125.925781 147.078125 136.246094 150.140625 145.730469 C 152.644531 141.265625 155.707031 137.082031 159.046875 133.457031 C 158.492188 127.878906 159.046875 122.023438 160.996094 116.445312 C 161.550781 114.492188 161.273438 112.261719 159.605469 110.585938 L 150.140625 100.824219 L 150.417969 85.484375 C 150.417969 83.8125 149.863281 82.417969 148.75 81.300781 C 147.636719 80.1875 146.242188 79.628906 144.851562 79.628906 C 144.851562 79.628906 144.574219 79.628906 144.574219 79.628906 L 135.109375 80.1875 L 136.5 71.261719 C 136.78125 69.585938 136.222656 67.636719 135.109375 66.519531 C 133.996094 65.402344 132.605469 64.566406 130.933594 64.566406 C 130.65625 64.566406 130.65625 64.566406 130.378906 64.566406 L 119.523438 65.683594 L 119.523438 55.363281 C 119.523438 53.691406 118.964844 52.296875 117.851562 51.179688 C 116.738281 50.0625 115.347656 49.507812 113.957031 49.507812 C 113.957031 49.507812 113.957031 49.507812 113.675781 49.507812 L 100.875 50.34375 L 98.367188 47.554688 L 96.699219 25.242188 L 113.398438 28.308594 C 113.675781 28.589844 113.675781 28.867188 113.957031 28.867188 L 177.972656 93.574219 C 179.085938 94.6875 180.480469 95.246094 181.871094 95.246094 C 182.429688 95.246094 183.261719 95.246094 183.820312 94.96875 C 187.4375 93.574219 193.839844 91.621094 201.078125 91.621094 C 208.871094 91.621094 217.5 93.851562 225.015625 101.382812 C 240.601562 117 240.878906 142.660156 225.847656 158.28125 C 218.613281 165.808594 208.871094 169.992188 198.292969 169.992188 C 191.054688 169.992188 184.097656 168.042969 178.253906 164.136719 C 177.140625 166.367188 176.027344 168.597656 175.191406 171.386719 C 174.914062 172.503906 174.355469 173.621094 174.078125 174.734375 C 181.59375 178.917969 189.664062 181.148438 198.292969 181.148438 C 211.933594 181.148438 224.457031 175.851562 233.921875 166.089844 C 253.125 146.007812 252.847656 113.65625 233.085938 93.574219 C 224.457031 84.925781 213.324219 80.1875 201.078125 80.1875 C 194.398438 80.464844 188.273438 81.859375 183.542969 83.53125 Z M 134.273438 84.371094 Z M 100.039062 50.34375 Z M 100.039062 50.34375 " fill-opacity="1" fill-rule="nonzero"/><path fill="#000000" d="M 193.28125 139.871094 C 196.34375 140.707031 199.40625 139.3125 200.242188 136.246094 C 201.078125 133.179688 199.683594 130.109375 196.625 129.273438 C 181.3125 124.253906 162.386719 139.871094 154.035156 164.414062 C 148.75 180.035156 148.46875 195.652344 153.757812 205.972656 C 156.542969 211.550781 160.996094 215.457031 166.285156 217.128906 C 166.839844 217.40625 167.398438 217.40625 167.953125 217.40625 C 170.460938 217.40625 172.40625 216.011719 173.242188 213.503906 C 174.078125 210.433594 172.6875 207.367188 169.625 206.53125 C 167.117188 205.695312 165.171875 204.019531 163.777344 200.953125 C 159.882812 193.144531 160.160156 180.3125 164.613281 167.761719 C 171.574219 148.238281 185.210938 137.363281 193.28125 139.871094 Z M 193.28125 139.871094 " fill-opacity="1" fill-rule="nonzero"/><g clip-path="url(#e8d1b48dc5)"><path fill="#000000" d="M 228.355469 61.5 C 225.292969 61.5 222.507812 62.613281 220.5625 64.566406 L 214.4375 70.703125 C 218.613281 71.539062 222.507812 72.933594 226.128906 74.886719 L 228.355469 72.65625 L 243.664062 72.933594 C 245.332031 72.933594 246.726562 72.375 247.839844 71.261719 C 248.953125 70.144531 249.507812 68.472656 249.507812 67.078125 L 248.953125 57.875 L 258.136719 59.269531 C 258.414062 59.269531 258.695312 59.269531 258.972656 59.269531 C 260.363281 59.269531 261.753906 58.710938 262.867188 57.875 C 264.261719 56.757812 264.816406 55.085938 264.539062 53.132812 L 263.425781 42.535156 L 273.722656 42.535156 C 275.394531 42.535156 276.785156 41.976562 277.898438 40.859375 C 279.292969 39.1875 279.847656 37.792969 279.847656 36.398438 L 279.570312 24.125 L 282.351562 21.617188 L 304.898438 19.664062 L 301.558594 36.398438 C 301.28125 36.675781 301 36.675781 301 36.957031 L 245.613281 90.785156 C 248.117188 93.851562 250.066406 96.921875 252.011719 100.265625 L 308.796875 45.042969 C 310.742188 43.371094 312.136719 41.140625 312.691406 38.628906 L 315.753906 22.453125 C 316.03125 21.335938 316.03125 20.5 316.03125 19.664062 C 316.03125 13.527344 311.023438 8.507812 304.898438 8.507812 C 304.898438 8.507812 304.898438 8.507812 304.621094 8.507812 C 304.34375 8.507812 304.0625 8.507812 303.785156 8.507812 L 281.238281 10.179688 C 278.734375 10.460938 276.507812 11.296875 274.558594 12.96875 C 270.664062 14.644531 268.15625 18.546875 268.15625 23.011719 C 268.15625 23.289062 268.15625 23.566406 268.15625 23.847656 C 268.15625 23.847656 268.15625 24.125 268.15625 24.125 L 268.4375 30.820312 L 263.703125 30.820312 C 260.640625 30.820312 257.582031 32.214844 255.355469 34.445312 C 253.125 36.675781 252.292969 39.746094 252.570312 42.8125 L 252.847656 46.4375 L 250.621094 46.160156 C 250.066406 46.160156 249.507812 46.160156 248.953125 46.160156 C 248.953125 46.160156 248.671875 46.160156 248.671875 46.160156 C 248.671875 46.160156 248.394531 46.160156 248.394531 46.160156 C 247.28125 45.878906 246.167969 45.601562 245.054688 45.601562 C 241.15625 45.601562 237.261719 47.554688 235.3125 51.179688 C 233.363281 54.527344 233.363281 58.152344 234.757812 61.5 Z M 245.054688 57.035156 Z M 245.054688 57.035156 " fill-opacity="1" fill-rule="nonzero"/></g><g clip-path="url(#86111b188e)"><path fill="#000000" d="M 194.117188 232.746094 C 194.675781 231.632812 195.230469 230.515625 195.789062 229.402344 C 197.738281 224.101562 198.292969 218.523438 197.457031 212.945312 C 203.859375 207.644531 209.707031 200.117188 213.878906 190.355469 C 209.425781 191.46875 204.972656 192.027344 200.242188 192.304688 C 198.015625 195.933594 195.511719 199 193.003906 201.789062 C 189.386719 195.933594 184.097656 191.46875 177.417969 188.960938 C 175.746094 188.402344 174.078125 187.84375 172.40625 187.566406 C 172.40625 188.121094 172.40625 188.679688 172.40625 189.238281 C 172.40625 189.515625 172.40625 189.796875 172.40625 189.796875 C 172.40625 191.46875 172.964844 193.144531 173.242188 194.257812 C 173.242188 194.816406 173.519531 195.09375 173.800781 195.652344 C 173.800781 195.652344 173.800781 195.933594 173.800781 195.933594 C 173.800781 195.933594 173.800781 196.210938 174.078125 196.210938 C 182.148438 199.277344 186.601562 208.484375 183.820312 216.851562 C 181.59375 223.824219 175.191406 228.5625 167.953125 228.5625 C 166.285156 228.5625 164.613281 228.285156 162.945312 227.726562 C 154.871094 225.21875 148.191406 219.359375 144.015625 210.992188 C 142.347656 207.644531 140.953125 204.019531 140.121094 200.117188 C 140.121094 200.117188 139.839844 200.394531 139.839844 200.394531 C 138.449219 202.347656 137.335938 204.578125 136.222656 206.808594 C 135.667969 207.925781 135.386719 209.039062 135.109375 210.15625 C 104.492188 211.550781 76.65625 231.074219 65.246094 259.800781 C 57.730469 279.046875 58.007812 299.964844 66.636719 318.929688 C 74.988281 337.894531 90.574219 352.675781 110.335938 360.207031 C 119.800781 363.832031 129.265625 365.507812 138.726562 365.507812 C 170.179688 365.507812 200.242188 346.542969 212.210938 315.863281 C 223.621094 287.132812 216.386719 254.222656 194.117188 232.746094 Z M 137.894531 340.40625 C 108.667969 340.40625 85.007812 316.699219 85.007812 287.414062 C 85.007812 258.128906 108.667969 234.421875 137.894531 234.421875 C 167.117188 234.421875 190.777344 258.128906 190.777344 287.414062 C 190.777344 316.699219 167.117188 340.40625 137.894531 340.40625 Z M 137.894531 245.578125 C 114.789062 245.578125 96.140625 264.265625 96.140625 287.414062 C 96.140625 310.5625 114.789062 329.25 137.894531 329.25 C 160.996094 329.25 179.644531 310.5625 179.644531 287.414062 C 179.644531 264.265625 160.996094 245.578125 137.894531 245.578125 Z M 137.894531 245.578125 " fill-opacity="1" fill-rule="nonzero"/></g></svg>