<svg xmlns="http://www.w3.org/2000/svg" xmlns:xlink="http://www.w3.org/1999/xlink" width="500" zoomAndPan="magnify" viewBox="0 0 375 374.999991" height="500" preserveAspectRatio="xMidYMid meet" version="1.0"><defs><clipPath id="246dfef6b7"><path d="M 14.621094 14.621094 L 286 14.621094 L 286 360.371094 L 14.621094 360.371094 Z M 14.621094 14.621094 " clip-rule="nonzero"/></clipPath><clipPath id="7849e9c52e"><path d="M 118 141 L 360.371094 141 L 360.371094 360.371094 L 118 360.371094 Z M 118 141 " clip-rule="nonzero"/></clipPath></defs><g clip-path="url(#246dfef6b7)"><path fill="#000000" d="M 26.144531 83.769531 L 78.007812 83.769531 C 81.464844 83.769531 83.769531 81.464844 83.769531 78.007812 L 83.769531 26.144531 L 273.933594 26.144531 L 273.933594 118.34375 L 285.457031 118.34375 L 285.457031 20.382812 C 285.457031 16.925781 283.152344 14.621094 279.695312 14.621094 L 78.007812 14.621094 C 77.433594 14.621094 76.855469 14.621094 76.277344 15.195312 L 75.703125 15.195312 C 75.125 15.773438 74.550781 15.773438 73.972656 16.347656 L 16.347656 73.972656 C 15.773438 74.550781 15.773438 75.125 15.195312 75.703125 L 15.195312 76.277344 C 15.195312 76.855469 14.621094 77.433594 14.621094 78.007812 L 14.621094 354.609375 C 14.621094 358.066406 16.925781 360.371094 20.382812 360.371094 L 106.820312 360.371094 L 106.820312 348.84375 L 26.144531 348.84375 Z M 72.246094 72.246094 L 34.214844 72.246094 L 72.246094 34.214844 Z M 72.246094 72.246094 " fill-opacity="1" fill-rule="nonzero"/></g><g clip-path="url(#7849e9c52e)"><path fill="#000000" d="M 348.84375 175.96875 L 285.457031 175.96875 L 285.457031 147.15625 C 285.457031 143.699219 283.152344 141.394531 279.695312 141.394531 L 199.019531 141.394531 C 195.5625 141.394531 193.257812 143.699219 193.257812 147.15625 L 193.257812 175.96875 L 129.871094 175.96875 C 122.957031 175.96875 118.34375 180.582031 118.34375 187.496094 L 118.34375 245.121094 C 118.34375 248.578125 120.652344 250.882812 124.109375 250.882812 L 135.632812 250.882812 L 135.632812 354.609375 C 135.632812 358.066406 137.9375 360.371094 141.394531 360.371094 L 337.320312 360.371094 C 340.777344 360.371094 343.082031 358.066406 343.082031 354.609375 L 343.082031 250.882812 L 354.609375 250.882812 C 358.066406 250.882812 360.371094 248.578125 360.371094 245.121094 L 360.371094 187.496094 C 360.371094 180.582031 355.761719 175.96875 348.84375 175.96875 Z M 204.78125 152.921875 L 273.933594 152.921875 L 273.933594 175.96875 L 204.78125 175.96875 Z M 331.558594 348.84375 L 147.15625 348.84375 L 147.15625 250.882812 L 331.558594 250.882812 Z M 262.40625 239.359375 L 216.308594 239.359375 L 216.308594 227.832031 L 262.40625 227.832031 Z M 348.84375 239.359375 L 273.933594 239.359375 L 273.933594 222.070312 C 273.933594 218.613281 271.628906 216.308594 268.171875 216.308594 L 210.546875 216.308594 C 207.089844 216.308594 204.78125 218.613281 204.78125 222.070312 L 204.78125 239.359375 L 129.871094 239.359375 L 129.871094 187.496094 L 348.84375 187.496094 Z M 348.84375 239.359375 " fill-opacity="1" fill-rule="nonzero"/></g><path fill="#000000" d="M 141.394531 49.195312 L 187.496094 49.195312 L 187.496094 60.71875 L 141.394531 60.71875 Z M 141.394531 49.195312 " fill-opacity="1" fill-rule="nonzero"/><path fill="#000000" d="M 112.582031 78.007812 L 187.496094 78.007812 L 187.496094 89.53125 L 112.582031 89.53125 Z M 112.582031 78.007812 " fill-opacity="1" fill-rule="nonzero"/><path fill="#000000" d="M 49.195312 141.394531 L 152.921875 141.394531 L 152.921875 152.921875 L 49.195312 152.921875 Z M 49.195312 141.394531 " fill-opacity="1" fill-rule="nonzero"/><path fill="#000000" d="M 49.195312 181.734375 L 95.296875 181.734375 L 95.296875 193.257812 L 49.195312 193.257812 Z M 49.195312 181.734375 " fill-opacity="1" fill-rule="nonzero"/><path fill="#000000" d="M 49.195312 222.070312 L 95.296875 222.070312 L 95.296875 233.59375 L 49.195312 233.59375 Z M 49.195312 222.070312 " fill-opacity="1" fill-rule="nonzero"/><path fill="#000000" d="M 49.195312 262.40625 L 106.820312 262.40625 L 106.820312 273.933594 L 49.195312 273.933594 Z M 49.195312 262.40625 " fill-opacity="1" fill-rule="nonzero"/><path fill="#000000" d="M 49.195312 302.746094 L 106.820312 302.746094 L 106.820312 314.269531 L 49.195312 314.269531 Z M 49.195312 302.746094 " fill-opacity="1" fill-rule="nonzero"/><path fill="#000000" d="M 204.78125 66.484375 C 204.78125 79.160156 215.15625 89.53125 227.832031 89.53125 C 240.511719 89.53125 250.882812 79.160156 250.882812 66.484375 C 250.882812 53.804688 240.511719 43.433594 227.832031 43.433594 C 215.15625 43.433594 204.78125 53.804688 204.78125 66.484375 Z M 239.359375 66.484375 C 239.359375 72.820312 234.171875 78.007812 227.832031 78.007812 C 221.496094 78.007812 216.308594 72.820312 216.308594 66.484375 C 216.308594 60.144531 221.496094 54.957031 227.832031 54.957031 C 234.171875 54.957031 239.359375 60.144531 239.359375 66.484375 Z M 239.359375 66.484375 " fill-opacity="1" fill-rule="nonzero"/></svg>