<svg xmlns="http://www.w3.org/2000/svg" xmlns:xlink="http://www.w3.org/1999/xlink" width="500" zoomAndPan="magnify" viewBox="0 0 375 374.999991" height="500" preserveAspectRatio="xMidYMid meet" version="1.0"><defs><clipPath id="a3c9c4dd09"><path d="M 129 5.339844 L 246 5.339844 L 246 62 L 129 62 Z M 129 5.339844 " clip-rule="nonzero"/></clipPath><clipPath id="43f54819ee"><path d="M 53.460938 18 L 321.210938 18 L 321.210938 369.839844 L 53.460938 369.839844 Z M 53.460938 18 " clip-rule="nonzero"/></clipPath></defs><g clip-path="url(#a3c9c4dd09)"><path fill="#000000" d="M 235.511719 61.5 L 139.375 61.5 C 133.832031 61.5 129.570312 57.015625 129.570312 51.675781 L 129.570312 15.164062 C 129.570312 9.824219 133.832031 5.339844 139.375 5.339844 L 235.511719 5.339844 C 240.839844 5.339844 245.316406 9.824219 245.316406 15.164062 L 245.316406 51.675781 C 245.316406 57.015625 240.839844 61.5 235.511719 61.5 Z M 139.375 13.882812 C 138.523438 13.882812 138.09375 14.523438 138.09375 15.164062 L 138.09375 51.675781 C 138.09375 52.316406 138.523438 52.957031 139.375 52.957031 L 235.511719 52.957031 C 236.148438 52.957031 236.789062 52.316406 236.789062 51.675781 L 236.789062 15.164062 C 236.789062 14.523438 236.148438 13.882812 235.511719 13.882812 Z M 139.375 13.882812 " fill-opacity="1" fill-rule="evenodd"/></g><path fill="#000000" d="M 218.03125 37.582031 L 156.851562 37.582031 C 151.3125 37.582031 151.3125 29.042969 156.851562 29.042969 L 218.03125 29.042969 C 223.574219 29.042969 223.574219 37.582031 218.03125 37.582031 Z M 218.03125 37.582031 " fill-opacity="1" fill-rule="evenodd"/><path fill="#000000" d="M 120.617188 127.054688 C 109.53125 127.054688 100.578125 118.085938 100.578125 107.195312 C 100.578125 96.089844 109.53125 87.121094 120.617188 87.121094 C 131.488281 87.121094 140.441406 96.089844 140.441406 107.195312 C 140.441406 118.085938 131.488281 127.054688 120.617188 127.054688 Z M 120.617188 95.664062 C 105.480469 95.664062 105.480469 118.511719 120.617188 118.511719 C 135.539062 118.511719 135.539062 95.664062 120.617188 95.664062 Z M 120.617188 95.664062 " fill-opacity="1" fill-rule="evenodd"/><path fill="#000000" d="M 270.042969 111.464844 L 169.429688 111.464844 C 163.675781 111.464844 163.675781 102.925781 169.429688 102.925781 L 270.042969 102.925781 C 275.585938 102.925781 275.585938 111.464844 270.042969 111.464844 Z M 270.042969 111.464844 " fill-opacity="1" fill-rule="evenodd"/><path fill="#000000" d="M 120.617188 185.347656 C 109.53125 185.347656 100.578125 176.164062 100.578125 165.277344 C 100.578125 154.171875 109.53125 145.203125 120.617188 145.203125 C 131.488281 145.203125 140.441406 154.171875 140.441406 165.277344 C 140.441406 176.164062 131.488281 185.347656 120.617188 185.347656 Z M 120.617188 153.746094 C 105.480469 153.746094 105.480469 176.804688 120.617188 176.804688 C 135.539062 176.804688 135.539062 153.746094 120.617188 153.746094 Z M 120.617188 153.746094 " fill-opacity="1" fill-rule="evenodd"/><path fill="#000000" d="M 270.042969 169.546875 L 169.429688 169.546875 C 163.675781 169.546875 163.675781 161.003906 169.429688 161.003906 L 270.042969 161.003906 C 275.585938 161.003906 275.585938 169.546875 270.042969 169.546875 Z M 270.042969 169.546875 " fill-opacity="1" fill-rule="evenodd"/><path fill="#000000" d="M 120.617188 243.429688 C 109.53125 243.429688 100.578125 234.460938 100.578125 223.355469 C 100.578125 212.253906 109.53125 203.285156 120.617188 203.285156 C 131.488281 203.285156 140.441406 212.253906 140.441406 223.355469 C 140.441406 234.460938 131.488281 243.429688 120.617188 243.429688 Z M 120.617188 211.824219 C 105.480469 211.824219 105.480469 234.886719 120.617188 234.886719 C 135.539062 234.886719 135.539062 211.824219 120.617188 211.824219 Z M 120.617188 211.824219 " fill-opacity="1" fill-rule="evenodd"/><path fill="#000000" d="M 270.042969 227.628906 L 169.429688 227.628906 C 163.675781 227.628906 163.675781 219.085938 169.429688 219.085938 L 270.042969 219.085938 C 275.585938 219.085938 275.585938 227.628906 270.042969 227.628906 Z M 270.042969 227.628906 " fill-opacity="1" fill-rule="evenodd"/><path fill="#000000" d="M 120.617188 301.507812 C 109.53125 301.507812 100.578125 292.542969 100.578125 281.4375 C 100.578125 270.546875 109.53125 261.578125 120.617188 261.578125 C 131.488281 261.578125 140.441406 270.546875 140.441406 281.4375 C 140.441406 292.542969 131.488281 301.507812 120.617188 301.507812 Z M 120.617188 270.121094 C 105.480469 270.121094 105.480469 292.96875 120.617188 292.96875 C 135.539062 292.96875 135.539062 270.121094 120.617188 270.121094 Z M 120.617188 270.121094 " fill-opacity="1" fill-rule="evenodd"/><path fill="#000000" d="M 270.042969 285.707031 L 169.429688 285.707031 C 163.675781 285.707031 163.675781 277.167969 169.429688 277.167969 L 270.042969 277.167969 C 275.585938 277.167969 275.585938 285.707031 270.042969 285.707031 Z M 270.042969 285.707031 " fill-opacity="1" fill-rule="evenodd"/><g clip-path="url(#43f54819ee)"><path fill="#000000" d="M 303.933594 369.839844 L 70.949219 369.839844 C 61.355469 369.839844 53.46875 361.9375 53.46875 352.332031 L 53.46875 36.300781 C 53.46875 26.691406 61.355469 18.792969 70.949219 18.792969 L 133.832031 18.792969 C 139.375 18.792969 139.375 27.332031 133.832031 27.332031 L 70.949219 27.332031 C 66.046875 27.332031 61.996094 31.390625 61.996094 36.300781 L 61.996094 352.332031 C 61.996094 357.242188 66.046875 361.296875 70.949219 361.296875 L 303.933594 361.296875 C 308.835938 361.296875 312.675781 357.242188 312.675781 352.332031 L 312.675781 36.300781 C 312.675781 31.390625 308.835938 27.332031 303.933594 27.332031 L 241.050781 27.332031 C 235.511719 27.332031 235.511719 18.792969 241.050781 18.792969 L 303.933594 18.792969 C 313.527344 18.792969 321.199219 26.691406 321.199219 36.300781 L 321.199219 352.332031 C 321.199219 361.9375 313.527344 369.839844 303.933594 369.839844 Z M 303.933594 369.839844 " fill-opacity="1" fill-rule="evenodd"/></g><path fill="#000000" d="M 296.472656 349.128906 L 78.410156 349.128906 C 76.066406 349.128906 74.148438 347.207031 74.148438 344.855469 L 74.148438 43.5625 C 74.148438 41.214844 76.066406 39.292969 78.410156 39.292969 L 133.832031 39.292969 C 139.375 39.292969 139.375 47.832031 133.832031 47.832031 L 82.671875 47.832031 L 82.671875 340.585938 L 292.210938 340.585938 L 292.210938 47.832031 L 241.050781 47.832031 C 235.511719 47.832031 235.511719 39.292969 241.050781 39.292969 L 296.472656 39.292969 C 298.820312 39.292969 300.738281 41.214844 300.738281 43.5625 L 300.738281 344.855469 C 300.738281 347.207031 298.820312 349.128906 296.472656 349.128906 Z M 296.472656 349.128906 " fill-opacity="1" fill-rule="evenodd"/></svg>