<svg xmlns="http://www.w3.org/2000/svg" xmlns:xlink="http://www.w3.org/1999/xlink" width="500" zoomAndPan="magnify" viewBox="0 0 375 374.999991" height="500" preserveAspectRatio="xMidYMid meet" version="1.0"><defs><clipPath id="9e6de2d86b"><path d="M 135 11.457031 L 240 11.457031 L 240 117 L 135 117 Z M 135 11.457031 " clip-rule="nonzero"/></clipPath><clipPath id="ae4024bc54"><path d="M 11.457031 129 L 134 129 L 134 251 L 11.457031 251 Z M 11.457031 129 " clip-rule="nonzero"/></clipPath><clipPath id="c20642af07"><path d="M 253 127 L 363.207031 127 L 363.207031 254 L 253 254 Z M 253 127 " clip-rule="nonzero"/></clipPath><clipPath id="064dfb8250"><path d="M 68 154 L 305 154 L 305 363.207031 L 68 363.207031 Z M 68 154 " clip-rule="nonzero"/></clipPath></defs><g clip-path="url(#9e6de2d86b)"><path fill="#000000" d="M 150.507812 100.632812 C 150.507812 100.632812 150.785156 100.90625 150.785156 100.90625 C 160.128906 110.25 173.042969 116.023438 187.332031 116.023438 C 201.625 116.023438 214.539062 110.25 223.882812 100.90625 C 223.882812 100.90625 224.15625 100.632812 224.15625 100.632812 C 224.15625 100.632812 224.433594 100.359375 224.433594 100.359375 C 233.773438 91.015625 239.546875 78.097656 239.546875 63.808594 C 239.546875 49.519531 233.773438 36.601562 224.433594 27.257812 C 224.433594 27.257812 224.15625 26.984375 224.15625 26.984375 C 224.15625 26.984375 223.882812 26.710938 223.882812 26.710938 C 214.539062 17.367188 201.625 11.597656 187.332031 11.597656 C 173.042969 11.597656 160.128906 17.367188 150.785156 26.710938 C 150.785156 26.710938 150.507812 26.984375 150.507812 26.984375 C 150.507812 26.984375 150.234375 27.257812 150.234375 27.257812 C 140.890625 36.601562 135.121094 49.519531 135.121094 63.808594 C 135.121094 78.097656 140.890625 91.015625 150.234375 100.359375 C 150.234375 100.359375 150.234375 100.632812 150.507812 100.632812 Z M 151.609375 58.3125 L 146.386719 58.3125 C 147.488281 51.167969 150.234375 44.296875 154.355469 38.800781 L 157.929688 42.375 C 159.027344 43.472656 160.402344 44.023438 161.777344 44.023438 C 163.152344 44.023438 164.523438 43.472656 165.625 42.375 C 167.820312 40.175781 167.820312 36.878906 165.625 34.679688 L 162.050781 31.105469 C 167.546875 26.984375 174.144531 23.960938 181.5625 23.136719 L 181.5625 28.085938 C 181.5625 31.105469 184.035156 33.582031 187.058594 33.582031 C 190.082031 33.582031 192.554688 31.105469 192.554688 28.085938 L 192.554688 22.863281 C 199.699219 23.960938 206.570312 26.710938 212.066406 30.832031 L 208.492188 34.40625 C 206.292969 36.601562 206.292969 39.902344 208.492188 42.097656 C 209.59375 43.199219 210.964844 43.746094 212.339844 43.746094 C 213.714844 43.746094 215.089844 43.199219 216.1875 42.097656 L 219.761719 38.527344 C 223.882812 44.023438 226.90625 50.617188 227.730469 58.039062 L 223.058594 58.039062 C 220.035156 58.039062 217.5625 60.511719 217.5625 63.535156 C 217.5625 66.558594 220.035156 69.03125 223.058594 69.03125 L 228.277344 69.03125 C 227.179688 76.175781 224.433594 83.046875 220.308594 88.542969 L 216.738281 84.96875 C 214.539062 82.769531 211.242188 82.769531 209.042969 84.96875 C 206.84375 87.167969 206.84375 90.464844 209.042969 92.664062 L 212.617188 96.234375 C 207.121094 100.359375 200.523438 103.378906 193.105469 104.203125 L 193.105469 99.535156 C 193.105469 96.511719 190.632812 94.039062 187.609375 94.039062 C 184.585938 94.039062 182.113281 96.511719 182.113281 99.535156 L 182.113281 104.753906 C 174.96875 103.65625 168.097656 100.90625 162.601562 96.785156 L 166.171875 93.210938 C 168.371094 91.015625 168.371094 87.714844 166.171875 85.519531 C 163.976562 83.320312 160.675781 83.320312 158.480469 85.519531 L 154.90625 89.089844 C 150.785156 83.59375 147.761719 77 146.9375 69.578125 L 151.609375 69.578125 C 154.632812 69.578125 157.105469 67.105469 157.105469 64.082031 C 157.105469 61.0625 154.632812 58.3125 151.609375 58.3125 Z M 151.609375 58.3125 " fill-opacity="1" fill-rule="nonzero"/></g><path fill="#000000" d="M 173.59375 69.304688 L 187.332031 69.304688 C 190.355469 69.304688 192.828125 66.832031 192.828125 63.808594 L 192.828125 47.320312 C 192.828125 44.296875 190.355469 41.824219 187.332031 41.824219 C 184.308594 41.824219 181.835938 44.296875 181.835938 47.320312 L 181.835938 58.3125 L 173.59375 58.3125 C 170.570312 58.3125 168.097656 60.785156 168.097656 63.808594 C 168.097656 66.832031 170.570312 69.304688 173.59375 69.304688 Z M 173.59375 69.304688 " fill-opacity="1" fill-rule="nonzero"/><g clip-path="url(#ae4024bc54)"><path fill="#000000" d="M 19.152344 206.433594 C 20.253906 209.730469 21.625 213.027344 23.273438 216.324219 C 21.625 220.996094 22.449219 226.492188 26.296875 230.066406 L 32.34375 236.109375 C 34.816406 238.585938 38.113281 239.957031 41.6875 239.957031 C 43.335938 239.957031 44.710938 239.683594 46.359375 239.132812 C 49.382812 240.78125 52.679688 242.15625 56.25 243.257812 C 58.449219 247.652344 62.847656 250.949219 68.066406 250.949219 L 76.585938 250.949219 C 81.808594 250.949219 86.480469 247.929688 88.402344 243.257812 C 91.703125 242.15625 95 240.78125 98.296875 239.132812 C 99.671875 239.683594 101.320312 239.957031 102.96875 239.957031 C 106.539062 239.957031 109.839844 238.585938 112.3125 236.109375 L 118.355469 230.066406 C 122.203125 226.21875 123.027344 220.996094 121.378906 216.324219 C 123.027344 213.300781 124.402344 210.003906 125.503906 206.433594 C 129.898438 204.234375 133.195312 199.835938 133.195312 194.617188 L 133.195312 186.097656 C 133.195312 180.875 130.175781 176.203125 125.503906 174.28125 C 124.402344 170.984375 123.027344 167.683594 121.378906 164.386719 C 121.929688 163.011719 122.203125 161.363281 122.203125 159.714844 C 122.203125 156.144531 120.832031 152.84375 118.355469 150.371094 L 112.3125 144.328125 C 109.839844 141.851562 106.539062 140.480469 102.96875 140.480469 C 101.320312 140.480469 99.945312 140.753906 98.296875 141.304688 C 95.273438 139.65625 91.976562 138.28125 88.402344 137.179688 C 86.207031 132.785156 81.808594 129.488281 76.585938 129.488281 L 68.066406 129.488281 C 62.847656 129.488281 58.175781 132.511719 56.25 137.179688 C 52.953125 138.28125 49.65625 139.65625 46.359375 141.304688 C 44.433594 141.027344 43.0625 140.753906 41.410156 140.753906 C 37.839844 140.753906 34.542969 142.128906 32.070312 144.601562 L 26.023438 150.648438 C 23.824219 152.84375 22.449219 156.144531 22.449219 159.714844 C 22.449219 161.363281 22.726562 162.738281 23.273438 164.386719 C 21.625 167.410156 20.253906 170.707031 19.152344 174.28125 C 14.480469 176.203125 11.457031 180.601562 11.457031 186.097656 L 11.457031 194.617188 C 11.457031 199.835938 14.480469 204.234375 19.152344 206.433594 Z M 22.449219 186.097656 C 22.449219 184.996094 23.273438 183.898438 24.648438 183.898438 L 28.222656 183.898438 C 29.320312 176.480469 32.34375 169.609375 36.464844 163.835938 L 33.992188 161.363281 C 33.167969 160.539062 33.167969 159.164062 33.992188 158.339844 L 40.039062 152.296875 C 40.3125 152.019531 40.863281 151.746094 41.410156 151.746094 C 41.960938 151.746094 42.511719 152.019531 42.785156 152.296875 L 45.257812 154.769531 C 51.03125 150.371094 57.898438 147.625 65.320312 146.523438 L 65.320312 142.953125 C 65.320312 141.851562 66.144531 140.753906 67.519531 140.753906 L 76.039062 140.753906 C 77.136719 140.753906 78.234375 141.578125 78.234375 142.953125 L 78.234375 146.523438 C 85.65625 147.625 92.527344 150.648438 98.296875 154.769531 L 100.769531 152.296875 C 101.042969 152.019531 101.59375 151.746094 102.144531 151.746094 C 102.695312 151.746094 103.242188 152.019531 103.519531 152.296875 L 109.5625 158.339844 C 110.386719 159.164062 110.386719 160.539062 109.5625 161.363281 L 107.089844 163.835938 C 111.488281 169.609375 114.234375 176.480469 115.335938 183.898438 L 118.90625 183.898438 C 120.007812 183.898438 121.105469 184.722656 121.105469 186.097656 L 121.105469 194.617188 C 121.105469 195.714844 120.28125 196.8125 118.90625 196.8125 L 115.335938 196.8125 C 114.234375 204.234375 111.210938 211.105469 107.089844 216.875 L 109.5625 219.347656 C 110.386719 220.171875 110.386719 221.546875 109.5625 222.371094 L 103.519531 228.417969 C 103.519531 228.691406 102.96875 228.691406 102.417969 228.691406 C 101.867188 228.691406 101.320312 228.417969 101.042969 228.140625 L 98.570312 225.667969 C 92.800781 230.066406 85.929688 232.8125 78.511719 233.914062 L 78.511719 237.484375 C 78.511719 238.585938 77.6875 239.683594 76.3125 239.683594 L 67.792969 239.683594 C 66.695312 239.683594 65.59375 238.859375 65.59375 237.484375 L 65.59375 233.914062 C 58.175781 232.8125 51.304688 229.789062 45.535156 225.667969 L 43.0625 228.140625 C 42.511719 228.691406 41.960938 228.691406 41.410156 228.691406 C 40.863281 228.691406 40.3125 228.417969 40.039062 228.140625 L 33.992188 222.097656 C 33.167969 221.273438 33.167969 219.898438 33.992188 219.074219 L 36.464844 216.601562 C 32.070312 210.828125 29.320312 203.960938 28.222656 196.539062 L 24.648438 196.539062 C 23.273438 196.539062 22.449219 195.714844 22.449219 194.339844 Z M 22.449219 186.097656 " fill-opacity="1" fill-rule="nonzero"/></g><path fill="#000000" d="M 71.914062 223.195312 C 90.050781 223.195312 104.890625 208.355469 104.890625 190.21875 C 104.890625 172.082031 90.050781 157.242188 71.914062 157.242188 C 53.777344 157.242188 38.9375 172.082031 38.9375 190.21875 C 38.9375 208.355469 53.777344 223.195312 71.914062 223.195312 Z M 71.914062 168.234375 C 84.007812 168.234375 93.898438 178.128906 93.898438 190.21875 C 93.898438 202.308594 84.007812 212.203125 71.914062 212.203125 C 59.824219 212.203125 49.929688 202.308594 49.929688 190.21875 C 49.929688 178.128906 59.824219 168.234375 71.914062 168.234375 Z M 71.914062 168.234375 " fill-opacity="1" fill-rule="nonzero"/><path fill="#000000" d="M 294.78125 116.023438 L 307.699219 116.023438 C 293.957031 93.210938 274.171875 74.527344 250.261719 62.433594 C 250.261719 62.984375 250.261719 63.257812 250.261719 63.808594 C 250.261719 67.382812 249.988281 70.953125 249.4375 74.25 C 267.851562 84.417969 283.515625 98.707031 294.78125 116.023438 Z M 294.78125 116.023438 " fill-opacity="1" fill-rule="nonzero"/><g clip-path="url(#c20642af07)"><path fill="#000000" d="M 346.71875 138.007812 L 335.453125 138.007812 C 334.078125 131.683594 328.582031 127.015625 321.988281 127.015625 L 294.507812 127.015625 C 287.910156 127.015625 282.414062 131.683594 281.042969 138.007812 L 269.773438 138.007812 C 260.707031 138.007812 253.285156 145.425781 253.285156 154.496094 L 253.285156 236.9375 C 253.285156 246.003906 260.707031 253.425781 269.773438 253.425781 L 346.71875 253.425781 C 355.789062 253.425781 363.207031 246.003906 363.207031 236.9375 L 363.207031 154.496094 C 363.207031 145.425781 355.789062 138.007812 346.71875 138.007812 Z M 291.757812 140.753906 C 291.757812 139.105469 292.859375 138.007812 294.507812 138.007812 L 321.988281 138.007812 C 323.636719 138.007812 324.734375 139.105469 324.734375 140.753906 L 324.734375 146.25 C 324.734375 147.898438 323.636719 149 321.988281 149 L 294.507812 149 C 292.859375 149 291.757812 147.898438 291.757812 146.25 Z M 352.214844 236.9375 C 352.214844 239.957031 349.742188 242.433594 346.71875 242.433594 L 269.773438 242.433594 C 266.75 242.433594 264.277344 239.957031 264.277344 236.9375 L 264.277344 154.496094 C 264.277344 151.472656 266.75 149 269.773438 149 L 281.042969 149 C 282.414062 155.320312 287.910156 159.992188 294.507812 159.992188 L 321.988281 159.992188 C 328.582031 159.992188 334.078125 155.320312 335.453125 149 L 346.71875 149 C 349.742188 149 352.214844 151.472656 352.214844 154.496094 Z M 352.214844 236.9375 " fill-opacity="1" fill-rule="nonzero"/></g><path fill="#000000" d="M 330.230469 170.984375 L 286.261719 170.984375 C 283.238281 170.984375 280.765625 173.457031 280.765625 176.480469 C 280.765625 179.5 283.238281 181.976562 286.261719 181.976562 L 330.230469 181.976562 C 333.253906 181.976562 335.726562 179.5 335.726562 176.480469 C 335.726562 173.457031 333.253906 170.984375 330.230469 170.984375 Z M 330.230469 170.984375 " fill-opacity="1" fill-rule="nonzero"/><path fill="#000000" d="M 330.230469 192.96875 L 286.261719 192.96875 C 283.238281 192.96875 280.765625 195.441406 280.765625 198.464844 C 280.765625 201.484375 283.238281 203.960938 286.261719 203.960938 L 330.230469 203.960938 C 333.253906 203.960938 335.726562 201.484375 335.726562 198.464844 C 335.726562 195.441406 333.253906 192.96875 330.230469 192.96875 Z M 330.230469 192.96875 " fill-opacity="1" fill-rule="nonzero"/><path fill="#000000" d="M 330.230469 214.953125 L 286.261719 214.953125 C 283.238281 214.953125 280.765625 217.425781 280.765625 220.449219 C 280.765625 223.46875 283.238281 225.945312 286.261719 225.945312 L 330.230469 225.945312 C 333.253906 225.945312 335.726562 223.46875 335.726562 220.449219 C 335.726562 217.425781 333.253906 214.953125 330.230469 214.953125 Z M 330.230469 214.953125 " fill-opacity="1" fill-rule="nonzero"/><path fill="#000000" d="M 76.039062 118.769531 C 76.585938 118.769531 77.136719 118.769531 77.6875 118.769531 C 89.226562 100.359375 105.441406 84.96875 124.679688 74.25 C 124.402344 70.953125 124.128906 67.382812 124.128906 63.808594 C 124.128906 63.257812 124.128906 62.984375 124.128906 62.433594 C 99.394531 75.074219 78.785156 94.863281 65.046875 119.042969 C 65.871094 119.042969 66.695312 118.769531 67.519531 118.769531 Z M 76.039062 118.769531 " fill-opacity="1" fill-rule="nonzero"/><g clip-path="url(#064dfb8250)"><path fill="#000000" d="M 304.398438 264.417969 L 291.210938 264.417969 C 282.414062 276.507812 271.421875 286.675781 258.78125 295.195312 C 251.089844 291.898438 243.117188 288.324219 237.074219 285.851562 C 233.5 284.203125 230.753906 283.101562 228.828125 282.277344 L 224.15625 267.164062 C 235.425781 252.875 242.292969 232.8125 242.292969 214.402344 C 242.292969 181.425781 218.9375 154.496094 190.082031 154.496094 C 161.226562 154.496094 137.867188 181.425781 137.867188 214.402344 C 137.867188 232.8125 144.738281 252.875 156.003906 267.164062 L 151.332031 282.003906 C 149.683594 282.828125 146.664062 283.925781 143.089844 285.574219 C 136.21875 288.597656 126.875 292.722656 118.082031 296.292969 C 103.519531 286.949219 90.875 275.132812 81.257812 260.84375 C 79.609375 261.117188 77.960938 261.394531 76.039062 261.394531 L 68.34375 261.394531 C 78.234375 277.058594 90.875 290.523438 105.992188 301.238281 C 99.394531 303.988281 94.449219 306.1875 93.625 306.460938 C 91.976562 307.011719 90.601562 308.386719 90.328125 310.035156 L 77.410156 355.925781 C 76.863281 357.574219 77.410156 359.5 78.234375 360.871094 C 79.058594 362.246094 80.984375 363.070312 82.632812 363.070312 L 296.980469 363.070312 C 298.628906 363.070312 300.277344 362.246094 301.378906 360.871094 C 302.476562 359.5 302.75 357.851562 302.203125 355.925781 L 289.285156 310.035156 C 288.734375 308.386719 287.636719 307.011719 285.988281 306.460938 C 285.164062 306.1875 278.570312 303.4375 270.324219 299.589844 C 283.789062 290.246094 295.332031 278.15625 304.398438 264.417969 Z M 148.859375 214.402344 C 148.859375 187.472656 167.273438 165.488281 190.082031 165.488281 C 212.890625 165.488281 231.300781 187.472656 231.300781 214.402344 C 231.300781 241.332031 212.890625 275.410156 190.082031 275.410156 C 167.273438 275.410156 148.859375 241.605469 148.859375 214.402344 Z M 279.667969 316.078125 L 289.835938 352.355469 L 90.050781 352.355469 L 100.21875 316.078125 C 105.167969 313.882812 117.257812 308.933594 147.210938 295.742188 C 158.203125 291.070312 158.203125 290.796875 159.027344 290.523438 C 159.851562 289.699219 160.675781 288.875 160.953125 287.773438 L 164.523438 276.234375 C 171.945312 282.554688 180.738281 286.402344 189.804688 286.402344 C 198.875 286.402344 207.667969 282.554688 215.089844 276.234375 L 218.660156 287.773438 C 218.9375 288.875 219.761719 289.972656 220.585938 290.523438 C 221.132812 291.070312 221.410156 291.070312 232.125 295.742188 C 262.628906 308.660156 274.722656 313.882812 279.667969 316.078125 Z M 279.667969 316.078125 " fill-opacity="1" fill-rule="nonzero"/></g></svg>