<svg xmlns="http://www.w3.org/2000/svg" xmlns:xlink="http://www.w3.org/1999/xlink" width="500" zoomAndPan="magnify" viewBox="0 0 375 374.999991" height="500" preserveAspectRatio="xMidYMid meet" version="1.0"><defs><clipPath id="7fa244c6c5"><path d="M 18 218 L 345 218 L 345 365.753906 L 18 365.753906 Z M 18 218 " clip-rule="nonzero"/></clipPath><clipPath id="6469124f95"><path d="M 14.765625 9.503906 L 360.5 9.503906 L 360.5 215 L 14.765625 215 Z M 14.765625 9.503906 " clip-rule="nonzero"/></clipPath></defs><path fill="#040606" d="M 193.496094 134.335938 L 221.214844 134.335938 L 221.214844 156.476562 L 193.496094 156.476562 L 193.496094 134.335938 " fill-opacity="1" fill-rule="nonzero"/><path fill="#040606" d="M 193.496094 98.472656 L 221.214844 98.472656 L 221.214844 120.613281 L 193.496094 120.613281 L 193.496094 98.472656 " fill-opacity="1" fill-rule="nonzero"/><path fill="#040606" d="M 193.496094 62.605469 L 221.214844 62.605469 L 221.214844 84.746094 L 193.496094 84.746094 L 193.496094 62.605469 " fill-opacity="1" fill-rule="nonzero"/><path fill="#040606" d="M 139.578125 134.335938 L 167.292969 134.335938 L 167.292969 156.476562 L 139.578125 156.476562 L 139.578125 134.335938 " fill-opacity="1" fill-rule="nonzero"/><path fill="#040606" d="M 139.578125 98.472656 L 167.292969 98.472656 L 167.292969 120.613281 L 139.578125 120.613281 L 139.578125 98.472656 " fill-opacity="1" fill-rule="nonzero"/><path fill="#040606" d="M 139.578125 62.605469 L 167.292969 62.605469 L 167.292969 84.746094 L 139.578125 84.746094 L 139.578125 62.605469 " fill-opacity="1" fill-rule="nonzero"/><g clip-path="url(#7fa244c6c5)"><path fill="#040606" d="M 327.597656 274.035156 C 325.007812 275.804688 321.78125 278.050781 318.019531 280.675781 C 291.726562 298.957031 211.667969 354.652344 196.59375 354.652344 C 186.890625 354.652344 121.402344 340.707031 73.394531 329.953125 L 68.96875 263.566406 C 93.875 256.671875 120.804688 249.746094 124.5625 249.652344 C 129.652344 249.652344 168.90625 260.46875 217.925781 275.363281 C 225.921875 277.800781 235.46875 282.703125 235.46875 292.285156 C 235.46875 300.980469 228.453125 308.066406 219.792969 308.222656 L 205.285156 306.800781 L 155.851562 300.414062 C 152.820312 300.03125 150.039062 302.183594 149.628906 305.21875 C 149.246094 308.257812 151.398438 311.039062 154.429688 311.449219 L 204.050781 317.808594 L 219 319.292969 C 219.191406 319.292969 219.347656 319.292969 219.539062 319.292969 C 234.425781 319.292969 246.5625 307.179688 246.5625 292.285156 C 246.5625 279.507812 237.523438 269.734375 221.152344 264.738281 C 218.304688 263.882812 214.988281 262.871094 211.414062 261.796875 L 242.042969 243.039062 C 247.636719 240.320312 253.578125 241.585938 257.558594 245.285156 L 242.453125 254.238281 C 239.828125 255.816406 238.945312 259.234375 240.523438 261.859375 C 241.566406 263.597656 243.402344 264.578125 245.265625 264.578125 C 246.246094 264.578125 247.226562 264.324219 248.109375 263.789062 L 282.9375 243.136719 C 288.785156 240.164062 295.074219 241.742188 299.058594 245.855469 L 258.445312 269.925781 C 255.820312 271.472656 254.9375 274.890625 256.515625 277.515625 C 258.066406 280.171875 261.480469 281.023438 264.101562 279.476562 L 312.804688 250.566406 C 314.859375 249.523438 316.976562 249.019531 319.03125 249.019531 C 326.746094 249.019531 333.003906 255.28125 333.003906 262.964844 C 333.003906 267.550781 330.980469 271.695312 327.597656 274.035156 Z M 308.917969 240.226562 C 304.273438 234.152344 297.066406 230.453125 289.164062 230.453125 C 285.339844 230.453125 281.546875 231.402344 277.566406 233.394531 L 267.292969 239.5 C 262.585938 233.867188 255.664062 230.453125 248.078125 230.453125 C 244.222656 230.453125 240.460938 231.402344 236.828125 233.234375 C 236.699219 233.300781 236.542969 233.363281 236.449219 233.425781 L 197.097656 257.527344 C 168.433594 249.019531 131.707031 238.550781 124.5625 238.550781 C 118.652344 238.550781 84.613281 247.722656 68.242188 252.246094 L 66 218.625 L 18.78125 218.53125 L 18.527344 363.097656 L 75.574219 363.191406 L 74.152344 341.496094 C 107.625 348.960938 184.140625 365.753906 196.59375 365.753906 C 212.902344 365.753906 267.640625 329.226562 324.375 289.785156 C 328.070312 287.191406 331.296875 284.945312 333.886719 283.175781 C 340.273438 278.78125 344.097656 271.253906 344.097656 262.964844 C 344.097656 245.792969 326.710938 232.382812 308.917969 240.226562 " fill-opacity="1" fill-rule="nonzero"/></g><g clip-path="url(#6469124f95)"><path fill="#040606" d="M 279.808594 123.804688 C 268.464844 124.3125 258.253906 118.902344 252.125 110.269531 L 252.125 72.980469 C 257.65625 65.167969 266.597656 59.886719 276.902344 59.414062 C 294.664062 58.621094 309.742188 72.378906 310.53125 90.152344 C 311.351562 107.960938 297.574219 123.015625 279.808594 123.804688 Z M 206.042969 203.886719 L 206.042969 177.320312 C 206.042969 174.25 203.546875 171.785156 200.511719 171.785156 L 160.277344 171.785156 C 157.242188 171.785156 154.746094 174.25 154.746094 177.320312 L 154.746094 203.886719 L 119.761719 203.886719 L 119.792969 47.234375 L 241.03125 47.234375 L 241.03125 203.886719 Z M 194.949219 203.886719 L 165.839844 203.886719 L 165.839844 182.886719 L 194.949219 182.886719 Z M 103.925781 140.378906 C 93.652344 151.382812 76.429688 151.984375 65.429688 141.707031 C 54.464844 131.429688 53.863281 114.191406 64.132812 103.214844 C 74.375 92.210938 91.597656 91.640625 102.597656 101.886719 C 105.222656 104.355469 107.246094 107.234375 108.667969 110.332031 L 108.667969 133.292969 C 107.496094 135.824219 105.917969 138.257812 103.925781 140.378906 Z M 156.894531 24.9375 L 203.894531 24.9375 L 203.894531 36.136719 L 156.894531 36.136719 Z M 347.605469 98.660156 C 348.171875 93.160156 348.078125 87.5625 347.289062 81.960938 L 359.960938 76.460938 C 358.824219 70.292969 356.960938 64.25 354.398438 58.402344 C 351.871094 52.550781 348.679688 47.078125 344.917969 42.082031 L 332.273438 47.582031 C 328.734375 43.21875 324.691406 39.328125 320.296875 36.007812 L 325.289062 23.292969 C 314.925781 16.179688 303.007812 11.402344 290.429688 9.503906 L 285.40625 22.3125 C 279.90625 21.746094 274.3125 21.839844 268.714844 22.628906 L 263.1875 9.914062 C 257.023438 11.085938 250.984375 12.953125 245.140625 15.480469 C 239.292969 18.042969 233.855469 21.238281 228.832031 24.9375 L 233.699219 36.136719 L 214.988281 36.136719 L 214.988281 19.371094 C 214.988281 16.304688 212.492188 13.835938 209.425781 13.835938 L 151.367188 13.835938 C 148.300781 13.835938 145.804688 16.304688 145.804688 19.371094 L 145.804688 36.136719 L 114.230469 36.136719 C 111.164062 36.136719 108.667969 38.632812 108.667969 41.667969 L 108.667969 56.125 C 104.210938 54.445312 99.628906 53.214844 95.011719 52.453125 L 90.621094 63.300781 C 85.878906 62.765625 81.136719 62.828125 76.523438 63.398438 L 71.972656 52.644531 C 66.757812 53.5625 61.636719 55.046875 56.675781 57.167969 C 51.714844 59.285156 47.066406 61.910156 42.800781 64.980469 L 47.351562 75.765625 C 43.683594 78.671875 40.367188 82.058594 37.460938 85.820312 L 26.617188 81.425781 C 23.617188 85.757812 21.054688 90.4375 19 95.4375 C 16.980469 100.464844 15.554688 105.621094 14.765625 110.808594 L 25.542969 115.203125 C 25.007812 119.945312 25.070312 124.660156 25.671875 129.308594 L 15.019531 133.800781 C 16.851562 144.269531 20.992188 154.292969 27.3125 163.023438 L 38.027344 158.5 C 40.902344 162.136719 44.285156 165.492188 48.046875 168.398438 L 43.652344 179.25 C 47.984375 182.285156 52.660156 184.847656 57.65625 186.871094 C 62.679688 188.894531 67.832031 190.316406 73.015625 191.140625 L 77.410156 180.324219 C 82.148438 180.863281 86.890625 180.796875 91.503906 180.195312 L 96.054688 190.980469 C 100.324219 190.222656 104.558594 189.054688 108.667969 187.503906 L 108.667969 203.886719 L 103.894531 203.886719 C 100.828125 203.886719 98.363281 206.382812 98.363281 209.453125 C 98.363281 212.488281 100.828125 214.988281 103.894531 214.988281 L 256.894531 214.988281 C 259.929688 214.988281 262.425781 212.488281 262.425781 209.453125 C 262.425781 206.382812 259.929688 203.886719 256.894531 203.886719 L 252.125 203.886719 L 252.125 170.265625 C 256.707031 171.816406 261.449219 173.019531 266.28125 173.746094 L 271.308594 160.9375 C 276.808594 161.503906 282.402344 161.410156 287.996094 160.621094 L 293.527344 173.300781 C 299.691406 172.164062 305.695312 170.296875 311.542969 167.769531 C 317.421875 165.207031 322.855469 162.011719 327.882812 158.28125 L 322.351562 145.597656 C 326.710938 142.054688 330.570312 138.007812 333.917969 133.578125 L 346.75 138.640625 C 350.289062 133.484375 353.292969 127.917969 355.632812 121.972656 C 357.9375 116.023438 359.550781 109.890625 360.46875 103.722656 L 347.605469 98.660156 " fill-opacity="1" fill-rule="nonzero"/></g></svg>