<svg xmlns="http://www.w3.org/2000/svg" xmlns:xlink="http://www.w3.org/1999/xlink" width="500" zoomAndPan="magnify" viewBox="0 0 375 374.999991" height="500" preserveAspectRatio="xMidYMid meet" version="1.0"><defs><clipPath id="e00376d2e0"><path d="M 6 9.296875 L 368.894531 9.296875 L 368.894531 365.546875 L 6 365.546875 Z M 6 9.296875 " clip-rule="nonzero"/></clipPath></defs><g clip-path="url(#e00376d2e0)"><path fill="#000000" d="M 182.828125 105.765625 C 142.65625 105.765625 109.972656 138.453125 109.972656 178.628906 C 109.972656 218.808594 142.65625 251.496094 182.828125 251.496094 C 223 251.496094 255.679688 218.808594 255.679688 178.628906 C 255.679688 138.453125 223 105.765625 182.828125 105.765625 Z M 182.828125 239.804688 C 149.101562 239.804688 121.664062 212.363281 121.664062 178.628906 C 121.664062 144.898438 149.101562 117.457031 182.828125 117.457031 C 216.554688 117.457031 243.992188 144.898438 243.992188 178.628906 C 243.992188 212.363281 216.554688 239.804688 182.828125 239.804688 Z M 201.425781 171.746094 C 206.085938 167.019531 208.972656 160.539062 208.972656 153.390625 C 208.972656 138.972656 197.242188 127.242188 182.828125 127.242188 C 168.414062 127.242188 156.683594 138.972656 156.683594 153.390625 C 156.683594 160.535156 159.566406 167.019531 164.230469 171.746094 C 149.59375 178.191406 138.902344 192.058594 137.097656 208.90625 C 136.921875 210.554688 137.457031 212.199219 138.5625 213.433594 C 139.671875 214.667969 141.25 215.371094 142.910156 215.371094 L 222.742188 215.371094 C 224.402344 215.371094 225.984375 214.667969 227.089844 213.433594 C 228.199219 212.199219 228.730469 210.554688 228.554688 208.90625 C 226.753906 192.058594 216.0625 178.195312 201.425781 171.746094 Z M 168.371094 153.390625 C 168.371094 145.417969 174.855469 138.933594 182.828125 138.933594 C 190.796875 138.933594 197.28125 145.417969 197.28125 153.390625 C 197.28125 161.363281 190.796875 167.847656 182.828125 167.847656 C 174.855469 167.847656 168.371094 161.363281 168.371094 153.390625 Z M 150.042969 203.683594 C 154.386719 189.546875 167.5 179.539062 182.828125 179.539062 C 198.15625 179.539062 211.269531 189.546875 215.609375 203.683594 Z M 99.972656 83.949219 C 98.890625 85.824219 96.925781 86.871094 94.90625 86.871094 C 93.914062 86.871094 92.910156 86.621094 91.988281 86.089844 L 77.464844 77.703125 C 75.65625 76.65625 74.542969 74.726562 74.542969 72.640625 L 74.542969 50.878906 C 74.542969 47.652344 77.160156 45.035156 80.386719 45.035156 C 83.613281 45.035156 86.230469 47.652344 86.230469 50.878906 L 86.230469 69.265625 L 97.832031 75.964844 C 100.628906 77.578125 101.585938 81.152344 99.972656 83.949219 Z M 74.542969 31.8125 L 74.542969 26.851562 C 74.542969 23.621094 77.160156 21.007812 80.386719 21.007812 C 83.613281 21.007812 86.230469 23.621094 86.230469 26.851562 L 86.230469 31.8125 C 86.230469 35.042969 83.613281 37.660156 80.386719 37.660156 C 77.160156 37.660156 74.542969 35.042969 74.542969 31.8125 Z M 105.117188 47.90625 C 102.835938 45.621094 102.835938 41.921875 105.117188 39.640625 L 108.625 36.128906 C 110.910156 33.847656 114.609375 33.847656 116.890625 36.128906 C 119.171875 38.414062 119.171875 42.113281 116.890625 44.394531 L 113.382812 47.90625 C 112.242188 49.046875 110.746094 49.617188 109.25 49.617188 C 107.753906 49.617188 106.257812 49.046875 105.117188 47.90625 Z M 116.890625 109.148438 C 115.75 110.289062 114.253906 110.859375 112.757812 110.859375 C 111.261719 110.859375 109.769531 110.289062 108.625 109.148438 L 105.117188 105.640625 C 102.835938 103.355469 102.835938 99.65625 105.117188 97.375 C 107.398438 95.089844 111.097656 95.089844 113.382812 97.375 L 116.890625 100.882812 C 119.171875 103.164062 119.171875 106.867188 116.890625 109.148438 Z M 55.65625 97.375 C 57.9375 99.65625 57.9375 103.355469 55.65625 105.640625 L 52.148438 109.148438 C 51.003906 110.289062 49.511719 110.859375 48.015625 110.859375 C 46.519531 110.859375 45.023438 110.289062 43.882812 109.148438 C 41.597656 106.867188 41.597656 103.167969 43.882812 100.882812 L 47.390625 97.375 C 49.671875 95.089844 53.375 95.089844 55.65625 97.375 Z M 55.65625 39.636719 C 57.9375 41.921875 57.9375 45.621094 55.65625 47.90625 C 54.515625 49.046875 53.019531 49.617188 51.523438 49.617188 C 50.027344 49.617188 48.53125 49.046875 47.390625 47.90625 L 43.882812 44.394531 C 41.597656 42.109375 41.597656 38.410156 43.882812 36.128906 C 46.164062 33.847656 49.863281 33.847656 52.144531 36.128906 Z M 121.203125 66.792969 L 126.167969 66.792969 C 129.394531 66.792969 132.011719 69.410156 132.011719 72.640625 C 132.011719 75.867188 129.394531 78.484375 126.167969 78.484375 L 121.203125 78.484375 C 117.976562 78.484375 115.359375 75.867188 115.359375 72.640625 C 115.359375 69.410156 117.976562 66.792969 121.203125 66.792969 Z M 86.230469 113.464844 L 86.230469 118.425781 C 86.230469 121.65625 83.613281 124.273438 80.386719 124.273438 C 77.160156 124.273438 74.542969 121.65625 74.542969 118.425781 L 74.542969 113.464844 C 74.542969 110.234375 77.160156 107.617188 80.386719 107.617188 C 83.613281 107.617188 86.230469 110.234375 86.230469 113.464844 Z M 39.566406 78.484375 L 34.605469 78.484375 C 31.378906 78.484375 28.761719 75.867188 28.761719 72.640625 C 28.761719 69.410156 31.378906 66.792969 34.605469 66.792969 L 39.566406 66.792969 C 42.796875 66.792969 45.410156 69.410156 45.410156 72.640625 C 45.410156 75.867188 42.796875 78.484375 39.566406 78.484375 Z M 365.957031 248.730469 L 342.59375 225.367188 C 340.675781 223.449219 338.230469 222.433594 335.519531 222.433594 L 277.953125 222.433594 C 280.40625 217.121094 282.410156 211.613281 283.933594 205.960938 L 300.21875 199.691406 C 302.472656 198.820312 303.964844 196.652344 303.964844 194.234375 L 303.964844 163.023438 C 303.964844 160.605469 302.472656 158.4375 300.21875 157.570312 L 283.9375 151.300781 C 281.59375 142.605469 278.140625 134.273438 273.640625 126.457031 L 280.726562 110.5 C 281.707031 108.289062 281.226562 105.703125 279.515625 103.992188 L 257.449219 81.925781 C 255.742188 80.214844 253.15625 79.738281 250.945312 80.714844 L 234.988281 87.804688 C 227.171875 83.304688 218.839844 79.851562 210.152344 77.507812 L 203.882812 61.21875 C 203.015625 58.964844 200.847656 57.472656 198.429688 57.472656 L 167.226562 57.472656 C 164.808594 57.472656 162.640625 58.964844 161.769531 61.21875 L 155.5 77.507812 C 151.273438 78.648438 147.125 80.058594 143.078125 81.71875 C 143.503906 78.753906 143.730469 75.722656 143.730469 72.640625 C 143.730469 37.707031 115.316406 9.285156 80.386719 9.285156 C 45.457031 9.285156 17.042969 37.707031 17.042969 72.640625 C 17.042969 107.570312 45.457031 135.992188 80.386719 135.992188 C 82.738281 135.992188 85.0625 135.859375 87.351562 135.609375 C 85.0625 140.679688 83.167969 145.917969 81.71875 151.300781 L 65.433594 157.570312 C 63.179688 158.4375 61.691406 160.605469 61.691406 163.023438 L 61.691406 194.234375 C 61.691406 196.652344 63.179688 198.820312 65.433594 199.691406 L 81.714844 205.957031 C 84.058594 214.65625 87.515625 222.988281 92.015625 230.804688 L 84.929688 246.761719 C 83.945312 248.96875 84.425781 251.554688 86.136719 253.265625 L 108.203125 275.335938 C 109.914062 277.042969 112.5 277.523438 114.707031 276.542969 L 130.667969 269.453125 C 138.484375 273.953125 146.8125 277.410156 155.503906 279.753906 L 161.773438 296.039062 C 162.640625 298.296875 164.808594 299.785156 167.226562 299.785156 L 198.429688 299.785156 C 200.847656 299.785156 203.015625 298.296875 203.886719 296.039062 L 210.152344 279.757812 C 218.84375 277.414062 227.175781 273.957031 234.996094 269.457031 L 250.945312 276.542969 C 251.445312 276.765625 251.960938 276.902344 252.484375 276.976562 L 252.484375 355.554688 C 252.484375 361.074219 256.972656 365.5625 262.488281 365.5625 L 358.882812 365.5625 C 364.398438 365.5625 368.886719 361.074219 368.886719 355.554688 L 368.886719 255.808594 C 368.886719 253.09375 367.875 250.648438 365.957031 248.730469 Z M 343.085938 242.390625 L 348.933594 248.238281 L 343.085938 248.238281 Z M 28.730469 72.640625 C 28.730469 44.152344 51.902344 20.972656 80.386719 20.972656 C 108.871094 20.972656 132.042969 44.152344 132.042969 72.640625 C 132.042969 101.125 108.871094 124.304688 80.386719 124.304688 C 51.902344 124.304688 28.730469 101.125 28.730469 72.640625 Z M 252.480469 232.441406 L 252.480469 263.773438 L 252.023438 264.230469 L 236.976562 257.546875 C 235.214844 256.761719 233.179688 256.898438 231.539062 257.910156 C 223.132812 263.089844 214.011719 266.871094 204.429688 269.148438 C 202.554688 269.59375 201.023438 270.9375 200.328125 272.734375 L 194.417969 288.09375 L 171.238281 288.09375 L 165.324219 272.730469 C 164.632812 270.933594 163.101562 269.589844 161.222656 269.144531 C 151.648438 266.867188 142.53125 263.085938 134.125 257.90625 C 132.480469 256.898438 130.449219 256.761719 128.6875 257.542969 L 113.632812 264.230469 L 97.238281 247.835938 L 103.925781 232.785156 C 104.707031 231.023438 104.570312 228.988281 103.558594 227.347656 C 98.382812 218.941406 94.601562 209.820312 92.320312 200.234375 C 91.875 198.363281 90.535156 196.828125 88.734375 196.132812 L 73.378906 190.222656 L 73.378906 167.039062 L 88.738281 161.125 C 90.535156 160.433594 91.878906 158.898438 92.324219 157.023438 C 94.410156 148.265625 97.765625 139.890625 102.285156 132.089844 C 118.953125 125.929688 132.34375 112.941406 139.046875 96.539062 C 146.058594 92.792969 153.503906 89.953125 161.222656 88.113281 C 163.097656 87.667969 164.632812 86.328125 165.324219 84.527344 L 171.238281 69.164062 L 194.417969 69.164062 L 200.332031 84.527344 C 201.023438 86.328125 202.554688 87.667969 204.433594 88.113281 C 214.007812 90.394531 223.125 94.175781 231.53125 99.351562 C 233.175781 100.363281 235.207031 100.5 236.96875 99.71875 L 252.023438 93.03125 L 268.414062 109.425781 L 261.730469 124.476562 C 260.949219 126.238281 261.085938 128.273438 262.097656 129.914062 C 267.273438 138.320312 271.054688 147.441406 273.332031 157.023438 C 273.78125 158.898438 275.121094 160.433594 276.921875 161.128906 L 292.277344 167.039062 L 292.277344 190.222656 L 276.914062 196.136719 C 275.117188 196.828125 273.773438 198.363281 273.328125 200.238281 C 271.488281 207.96875 268.660156 215.421875 264.910156 222.433594 L 262.488281 222.433594 C 256.96875 222.433594 252.480469 226.921875 252.480469 232.441406 Z M 264.171875 353.871094 L 264.171875 234.125 L 331.398438 234.125 L 331.398438 252.003906 C 331.398438 256.375 334.953125 259.929688 339.324219 259.929688 L 357.199219 259.929688 L 357.199219 353.875 L 264.171875 353.875 Z M 348.691406 298.917969 C 348.691406 302.148438 346.074219 304.765625 342.847656 304.765625 L 278.519531 304.765625 C 275.292969 304.765625 272.675781 302.148438 272.675781 298.917969 C 272.675781 295.691406 275.292969 293.074219 278.519531 293.074219 L 342.847656 293.074219 C 346.078125 293.074219 348.691406 295.691406 348.691406 298.917969 Z M 348.691406 320.886719 C 348.691406 324.113281 346.074219 326.730469 342.847656 326.730469 L 278.519531 326.730469 C 275.292969 326.730469 272.675781 324.113281 272.675781 320.886719 C 272.675781 317.65625 275.292969 315.039062 278.519531 315.039062 L 342.847656 315.039062 C 346.078125 315.039062 348.691406 317.65625 348.691406 320.886719 Z M 348.691406 276.953125 C 348.691406 280.183594 346.074219 282.800781 342.847656 282.800781 L 278.519531 282.800781 C 275.292969 282.800781 272.675781 280.183594 272.675781 276.953125 C 272.675781 273.726562 275.292969 271.109375 278.519531 271.109375 L 342.847656 271.109375 C 346.078125 271.109375 348.691406 273.726562 348.691406 276.953125 Z M 228.308594 330.390625 C 229.117188 333.515625 227.242188 336.703125 224.117188 337.515625 C 210.703125 340.992188 196.8125 342.753906 182.828125 342.753906 C 138.996094 342.753906 97.785156 325.683594 66.792969 294.683594 C 35.796875 263.683594 18.726562 222.46875 18.726562 178.628906 C 18.726562 173.40625 18.988281 168.191406 19.480469 163.007812 L 16.773438 166.058594 C 14.632812 168.472656 10.9375 168.695312 8.523438 166.550781 C 6.109375 164.410156 5.886719 160.714844 8.03125 158.300781 L 23.949219 140.355469 C 25.257812 138.875 27.230469 138.164062 29.1875 138.453125 C 31.140625 138.746094 32.816406 140.007812 33.636719 141.804688 L 43.597656 163.628906 C 44.9375 166.566406 43.640625 170.035156 40.707031 171.375 C 39.917969 171.734375 39.09375 171.90625 38.28125 171.90625 C 36.0625 171.90625 33.945312 170.636719 32.960938 168.484375 L 31.089844 164.378906 C 30.652344 169.109375 30.417969 173.867188 30.417969 178.628906 C 30.417969 262.683594 98.789062 331.066406 182.828125 331.066406 C 195.824219 331.066406 208.730469 329.425781 221.1875 326.199219 C 224.308594 325.386719 227.5 327.265625 228.308594 330.390625 Z M 153.644531 22.925781 C 153.171875 19.730469 155.378906 16.757812 158.570312 16.285156 C 166.546875 15.105469 174.707031 14.503906 182.828125 14.503906 C 226.660156 14.503906 267.871094 31.574219 298.863281 62.574219 C 327.980469 91.695312 344.808594 129.835938 346.738281 170.695312 L 349.140625 167.101562 C 350.9375 164.417969 354.566406 163.699219 357.25 165.496094 C 359.933594 167.289062 360.652344 170.921875 358.855469 173.601562 L 345.519531 193.542969 C 344.433594 195.164062 342.609375 196.136719 340.660156 196.136719 C 340.636719 196.136719 340.613281 196.136719 340.585938 196.136719 C 338.609375 196.109375 336.78125 195.085938 335.722656 193.417969 L 322.898438 173.144531 C 321.171875 170.417969 321.984375 166.808594 324.710938 165.082031 C 327.4375 163.355469 331.046875 164.167969 332.773438 166.894531 L 335.019531 170.445312 C 330.75 90.183594 264.121094 26.195312 182.828125 26.195312 C 175.277344 26.195312 167.695312 26.75 160.285156 27.851562 C 157.089844 28.324219 154.117188 26.117188 153.644531 22.925781 Z M 153.644531 22.925781 " fill-opacity="1" fill-rule="nonzero"/></g></svg>