<svg xmlns="http://www.w3.org/2000/svg" xmlns:xlink="http://www.w3.org/1999/xlink" width="500" zoomAndPan="magnify" viewBox="0 0 375 374.999991" height="500" preserveAspectRatio="xMidYMid meet" version="1.0"><defs><clipPath id="502256c0ff"><path d="M 49 81.625 L 366.753906 81.625 L 366.753906 335 L 49 335 Z M 49 81.625 " clip-rule="nonzero"/></clipPath></defs><path fill="#040606" d="M 30.777344 228.511719 C 23.75 228.511719 18.109375 234.148438 18.109375 241.171875 L 18.109375 305.167969 C 10.785156 310.558594 9.253906 320.894531 14.644531 328.164062 C 20.089844 335.484375 30.378906 337.019531 37.703125 331.625 C 40.820312 329.300781 43.046875 325.9375 43.9375 322.179688 L 53.6875 322.179688 C 55.863281 331.035156 64.769531 336.425781 73.578125 334.25 C 81.742188 332.269531 87.085938 324.503906 86.046875 316.246094 C 87.285156 314.167969 87.976562 311.894531 87.976562 309.519531 C 87.925781 286.671875 82.78125 264.167969 72.933594 243.59375 C 68.53125 234.347656 59.179688 228.511719 48.9375 228.511719 Z M 31.519531 241.171875 L 48.9375 241.171875 C 54.328125 241.171875 59.179688 244.238281 61.503906 249.082031 C 67.046875 260.65625 71.003906 272.972656 73.183594 285.632812 C 50.320312 285.78125 31.617188 267.433594 31.371094 244.582031 C 31.371094 243.445312 31.417969 242.257812 31.519531 241.171875 Z M 27.808594 314.5625 C 29.933594 314.515625 31.667969 316.148438 31.714844 318.273438 C 31.714844 318.324219 31.714844 318.371094 31.714844 318.371094 C 31.765625 320.5 30.132812 322.230469 28.054688 322.328125 C 25.925781 322.378906 24.195312 320.746094 24.097656 318.667969 C 24.097656 318.570312 24.097656 318.472656 24.097656 318.371094 C 24.097656 316.34375 25.730469 314.613281 27.808594 314.5625 Z M 69.617188 314.5625 C 71.695312 314.515625 73.429688 316.148438 73.527344 318.273438 C 73.527344 318.324219 73.527344 318.371094 73.527344 318.371094 C 73.578125 320.5 71.945312 322.230469 69.867188 322.328125 C 67.738281 322.378906 66.007812 320.746094 65.90625 318.667969 C 65.90625 318.570312 65.90625 318.472656 65.90625 318.371094 C 65.90625 316.34375 67.539062 314.664062 69.617188 314.5625 " fill-opacity="1" fill-rule="nonzero"/><path fill="#040606" d="M 264.773438 258.875 L 264.773438 309.519531 L 315.441406 309.519531 L 315.441406 258.875 L 264.773438 258.875 " fill-opacity="1" fill-rule="nonzero"/><path fill="#040606" d="M 264.773438 195.570312 L 264.773438 246.214844 L 315.441406 246.214844 L 315.441406 195.570312 L 264.773438 195.570312 " fill-opacity="1" fill-rule="nonzero"/><path fill="#040606" d="M 201.4375 258.875 L 201.4375 309.519531 L 252.105469 309.519531 L 252.105469 258.875 L 201.4375 258.875 " fill-opacity="1" fill-rule="nonzero"/><path fill="#040606" d="M 100.097656 309.519531 L 100.097656 220.894531 L 112.765625 220.894531 L 112.765625 296.859375 L 138.101562 296.859375 L 138.101562 309.519531 L 100.097656 309.519531 " fill-opacity="1" fill-rule="nonzero"/><g clip-path="url(#502256c0ff)"><path fill="#040606" d="M 87.433594 244.929688 C 86.492188 242.65625 85.453125 240.378906 84.363281 238.152344 C 77.933594 224.652344 64.375 215.996094 49.429688 215.847656 L 49.429688 133.851562 L 207.769531 81.625 L 366.109375 133.851562 L 366.109375 334.839844 L 150.769531 334.839844 L 150.769531 322.179688 L 328.105469 322.179688 L 328.105469 170.25 L 87.433594 170.25 L 87.433594 244.929688 " fill-opacity="1" fill-rule="nonzero"/></g></svg>