<svg xmlns="http://www.w3.org/2000/svg" xmlns:xlink="http://www.w3.org/1999/xlink" width="500" zoomAndPan="magnify" viewBox="0 0 375 374.999991" height="500" preserveAspectRatio="xMidYMid meet" version="1.0"><defs><clipPath id="2e8b88ce0b"><path d="M 46.730469 7.316406 L 327.980469 7.316406 L 327.980469 367.316406 L 46.730469 367.316406 Z M 46.730469 7.316406 " clip-rule="nonzero"/></clipPath></defs><g clip-path="url(#2e8b88ce0b)"><path fill="#000000" d="M 129.078125 121.617188 L 129.078125 14.96875 C 129.078125 10.839844 132.421875 7.492188 136.554688 7.492188 L 238.15625 7.492188 C 242.289062 7.492188 245.636719 10.839844 245.636719 14.96875 L 245.636719 121.617188 L 287.542969 121.617188 C 290.09375 121.617188 292.464844 122.917969 293.839844 125.066406 L 326.871094 176.667969 C 327.675781 177.925781 328.070312 179.371094 328.050781 180.8125 C 328.050781 180.851562 328.050781 180.886719 328.050781 180.925781 L 328.050781 359.664062 C 328.050781 363.796875 324.703125 367.144531 320.570312 367.144531 L 54.144531 367.144531 C 50.011719 367.144531 46.664062 363.796875 46.664062 359.664062 L 46.664062 180.925781 C 46.664062 180.886719 46.664062 180.851562 46.664062 180.8125 C 46.640625 179.371094 47.039062 177.925781 47.84375 176.667969 L 80.875 125.066406 C 82.246094 122.917969 84.621094 121.617188 87.171875 121.617188 Z M 61.625 188.40625 L 61.625 352.183594 L 313.089844 352.183594 L 313.089844 188.40625 Z M 245.636719 147.054688 L 259.988281 147.054688 C 264.117188 147.054688 267.46875 150.40625 267.46875 154.535156 C 267.46875 158.664062 264.117188 162.015625 259.988281 162.015625 L 114.726562 162.015625 C 110.597656 162.015625 107.246094 158.664062 107.246094 154.535156 C 107.246094 150.40625 110.597656 147.054688 114.726562 147.054688 L 129.078125 147.054688 L 129.078125 136.578125 L 91.265625 136.578125 L 67.8125 173.222656 L 306.902344 173.222656 L 283.449219 136.578125 L 245.636719 136.578125 Z M 230.679688 147.054688 L 230.679688 22.449219 L 144.035156 22.449219 L 144.035156 147.054688 Z M 179.878906 43.210938 L 179.878906 39.839844 C 179.878906 35.710938 183.226562 32.363281 187.355469 32.363281 C 191.484375 32.363281 194.835938 35.710938 194.835938 39.839844 L 194.835938 42.914062 C 203.632812 44.902344 211.292969 51.070312 213.425781 62.996094 C 214.15625 67.0625 211.441406 70.949219 207.382812 71.675781 C 203.316406 72.40625 199.425781 69.695312 198.699219 65.632812 C 198.140625 62.507812 196.722656 60.355469 194.835938 58.976562 L 194.835938 75.601562 C 204.660156 78.585938 210.21875 83.71875 213.035156 88.988281 C 218.957031 100.066406 213.652344 113.417969 204.371094 119.425781 C 201.605469 121.210938 198.335938 122.46875 194.835938 123.140625 L 194.835938 128.523438 C 194.835938 132.652344 191.484375 136.003906 187.355469 136.003906 C 183.226562 136.003906 179.878906 132.652344 179.878906 128.523438 L 179.878906 122.507812 C 169.503906 119.644531 160.542969 111.765625 159.1875 99.003906 C 158.753906 94.898438 161.730469 91.214844 165.835938 90.777344 C 169.945312 90.34375 173.628906 93.320312 174.066406 97.425781 C 174.511719 101.613281 176.84375 104.566406 179.878906 106.394531 L 179.878906 87.550781 C 171.601562 85.179688 166.441406 80.828125 163.5625 76.179688 C 157.558594 66.484375 160.585938 54.507812 169.164062 48.140625 C 172.175781 45.902344 175.890625 44.210938 179.878906 43.210938 Z M 194.835938 91.542969 L 194.835938 107.628906 C 195.332031 107.40625 195.796875 107.148438 196.242188 106.867188 C 199.585938 104.699219 201.976562 100.03125 199.839844 96.039062 C 198.890625 94.261719 197.242188 92.761719 194.835938 91.542969 Z M 179.878906 59.023438 C 179.234375 59.363281 178.632812 59.746094 178.082031 60.152344 C 175.574219 62.007812 174.527344 65.472656 176.28125 68.304688 C 177.066406 69.570312 178.265625 70.660156 179.878906 71.554688 Z M 179.878906 59.023438 " fill-opacity="1" fill-rule="evenodd"/></g></svg>