<svg xmlns="http://www.w3.org/2000/svg" xmlns:xlink="http://www.w3.org/1999/xlink" width="500" zoomAndPan="magnify" viewBox="0 0 375 374.999991" height="500" preserveAspectRatio="xMidYMid meet" version="1.0"><defs><clipPath id="f7223b857f"><path d="M 19.722656 25.773438 L 360 25.773438 L 360 358.773438 L 19.722656 358.773438 Z M 19.722656 25.773438 " clip-rule="nonzero"/></clipPath></defs><g clip-path="url(#f7223b857f)"><path fill="#000000" d="M 52.554688 358.773438 L 253.347656 358.773438 C 271.390625 358.773438 286.023438 344.148438 286.023438 326.117188 L 286.023438 264.429688 L 340.640625 139.777344 C 343.410156 142.046875 345.613281 145.03125 346.964844 148.4375 C 349.023438 153.691406 348.882812 159.441406 346.609375 164.621094 L 322.457031 219.921875 L 332.898438 224.464844 L 357.121094 169.238281 C 360.601562 161.285156 360.8125 152.484375 357.617188 144.390625 C 355.132812 138.074219 350.871094 132.890625 345.402344 129.199219 L 352.644531 112.730469 C 357.6875 101.230469 352.433594 87.816406 340.925781 82.773438 L 335.316406 80.289062 C 329.773438 77.875 323.59375 77.734375 317.914062 79.933594 C 312.230469 82.136719 307.828125 86.394531 305.339844 92.003906 L 296.035156 113.226562 L 286.09375 135.945312 L 286.09375 109.394531 L 202.351562 25.773438 L 52.410156 25.773438 C 34.441406 25.773438 19.882812 40.324219 19.882812 58.285156 L 19.882812 326.1875 C 19.882812 344.148438 34.511719 358.773438 52.554688 358.773438 Z M 315.710938 96.546875 C 316.917969 93.777344 319.191406 91.648438 321.960938 90.511719 C 324.730469 89.375 327.855469 89.449219 330.628906 90.652344 L 336.238281 93.140625 C 341.992188 95.625 344.621094 102.367188 342.0625 108.117188 L 335.03125 124.160156 L 308.609375 112.589844 Z M 304.132812 123.023438 L 324.804688 132.039062 L 330.554688 134.59375 L 273.238281 265.351562 L 246.816406 253.78125 Z M 268.121094 275.503906 L 248.164062 286.792969 L 242.90625 264.429688 Z M 205.691406 45.152344 L 266.632812 106.058594 L 226.785156 106.128906 C 226.785156 106.128906 226.785156 106.128906 226.714844 106.128906 C 221.101562 106.128906 215.777344 103.929688 211.796875 99.953125 C 207.820312 95.976562 205.617188 90.652344 205.617188 84.976562 Z M 31.246094 58.285156 C 31.246094 46.640625 40.761719 37.128906 52.410156 37.128906 L 194.394531 37.128906 L 194.324219 84.976562 C 194.324219 93.707031 197.664062 101.871094 203.84375 107.976562 C 209.953125 114.078125 218.121094 117.488281 226.855469 117.488281 C 226.855469 117.488281 226.925781 117.488281 226.925781 117.488281 L 274.800781 117.417969 L 274.800781 161.855469 L 240.28125 240.71875 L 240.28125 240.222656 L 65.765625 240.222656 L 65.765625 251.582031 L 235.308594 251.582031 L 231.402344 260.597656 C 230.90625 261.734375 230.761719 263.011719 231.046875 264.144531 L 236.445312 287.144531 L 65.765625 287.144531 L 65.765625 298.503906 L 239.5 298.503906 C 240.066406 299.425781 240.992188 300.207031 242.054688 300.703125 C 242.765625 300.988281 243.546875 301.203125 244.328125 301.203125 C 245.324219 301.203125 246.246094 300.988281 247.097656 300.492188 L 274.65625 284.875 L 274.65625 326.1875 C 274.65625 337.972656 265.070312 347.484375 253.347656 347.484375 L 52.554688 347.484375 C 40.761719 347.484375 31.246094 337.902344 31.246094 326.1875 Z M 31.246094 58.285156 " fill-opacity="1" fill-rule="nonzero"/></g><path fill="#000000" d="M 152.988281 146.378906 L 240.136719 146.378906 L 240.136719 157.738281 L 152.988281 157.738281 Z M 152.988281 146.378906 " fill-opacity="1" fill-rule="nonzero"/><path fill="#000000" d="M 65.765625 193.300781 L 240.066406 193.300781 L 240.066406 204.660156 L 65.765625 204.660156 Z M 65.765625 193.300781 " fill-opacity="1" fill-rule="nonzero"/></svg>