<svg xmlns="http://www.w3.org/2000/svg" xmlns:xlink="http://www.w3.org/1999/xlink" width="500" zoomAndPan="magnify" viewBox="0 0 375 374.999991" height="500" preserveAspectRatio="xMidYMid meet" version="1.0"><defs><clipPath id="2cbd1daf17"><path d="M 16.164062 15.976562 L 358 15.976562 L 358 360.976562 L 16.164062 360.976562 Z M 16.164062 15.976562 " clip-rule="nonzero"/></clipPath></defs><g clip-path="url(#2cbd1daf17)"><path fill="#000000" d="M 357.757812 168.410156 C 358.148438 238.8125 272.246094 232.160156 272.246094 232.160156 C 272.246094 232.160156 186.339844 238.8125 186.730469 168.410156 C 186.730469 168.410156 182.601562 119.703125 234.296875 76.175781 L 310.203125 76.175781 C 361.898438 119.703125 357.757812 168.410156 357.757812 168.410156 Z M 41.738281 245.859375 L 70.703125 354.121094 L 45.164062 360.976562 L 16.203125 252.71875 Z M 175.746094 237.21875 Z M 229.625 314.675781 Z M 216.460938 345.179688 Z M 162.816406 339.164062 Z M 68.8125 255.003906 C 103.753906 243.824219 157.433594 226.65625 175.746094 237.234375 L 175.746094 237.242188 L 249.632812 279.953125 L 249.632812 279.96875 C 255.226562 283.1875 257.96875 289.089844 257.492188 295.304688 C 256.300781 307.007812 243.511719 313.152344 233.765625 307.519531 L 233.765625 307.507812 L 158.832031 264.195312 C 154.144531 261.492188 150.03125 268.632812 154.730469 271.34375 L 229.632812 314.664062 C 243.621094 322.75 261.574219 314.992188 265.207031 299.164062 L 329.753906 281.847656 C 338.183594 279.585938 346.941406 284.636719 349.203125 293.085938 C 351.460938 301.53125 346.417969 310.304688 337.980469 312.566406 L 216.453125 345.175781 L 214.542969 345.742188 C 202.015625 349.144531 178.734375 351.859375 162.820312 339.15625 L 162.425781 338.882812 C 132.917969 317.332031 110.066406 324.515625 83.167969 332.976562 C 80.28125 333.886719 77.34375 334.8125 74.335938 335.714844 L 53.996094 259.679688 C 58.335938 258.351562 63.355469 256.746094 68.8125 255.003906 Z M 307.054688 39.84375 L 237.4375 39.84375 L 237.4375 27.539062 C 237.4375 21.175781 242.636719 15.976562 248.980469 15.976562 L 295.507812 15.976562 C 301.859375 15.976562 307.054688 21.175781 307.054688 27.539062 Z M 311.722656 67.902344 L 232.773438 67.902344 C 227.339844 67.902344 222.898438 63.453125 222.898438 58.007812 C 222.898438 52.570312 227.339844 48.117188 232.773438 48.117188 L 311.722656 48.117188 C 317.152344 48.117188 321.597656 52.570312 321.597656 58.007812 C 321.597656 63.453125 317.152344 67.902344 311.722656 67.902344 Z M 276.449219 102.859375 L 276.449219 92.972656 C 276.449219 87.523438 268.183594 87.523438 268.183594 92.972656 L 268.183594 102.839844 C 255.761719 104.804688 246.417969 115.574219 246.417969 128.382812 C 246.417969 133.835938 254.6875 133.835938 254.6875 128.382812 C 254.6875 112.765625 273.632812 104.894531 284.664062 115.953125 C 295.699219 127.003906 287.839844 145.976562 272.246094 145.976562 C 249.3125 145.976562 237.753906 173.886719 253.988281 190.132812 C 257.753906 193.90625 262.679688 196.519531 268.183594 197.390625 L 268.183594 207.253906 C 268.183594 212.707031 276.449219 212.707031 276.449219 207.253906 L 276.449219 197.371094 C 288.800781 195.347656 298.074219 184.609375 298.074219 171.84375 C 298.074219 166.394531 289.8125 166.394531 289.8125 171.84375 C 289.8125 187.464844 270.867188 195.335938 259.828125 184.277344 C 248.792969 173.226562 256.652344 154.253906 272.246094 154.253906 C 295.1875 154.253906 306.738281 126.347656 290.511719 110.097656 C 286.777344 106.355469 281.898438 103.75 276.449219 102.859375 Z M 276.449219 102.859375 " fill-opacity="1" fill-rule="evenodd"/></g></svg>