<svg xmlns="http://www.w3.org/2000/svg" xmlns:xlink="http://www.w3.org/1999/xlink" width="500" zoomAndPan="magnify" viewBox="0 0 375 374.999991" height="500" preserveAspectRatio="xMidYMid meet" version="1.0"><defs><clipPath id="30edb57862"><path d="M 170 147 L 347.953125 147 L 347.953125 370.769531 L 170 370.769531 Z M 170 147 " clip-rule="nonzero"/></clipPath><clipPath id="4fb13d879a"><path d="M 26.953125 4.019531 L 320 4.019531 L 320 268 L 26.953125 268 Z M 26.953125 4.019531 " clip-rule="nonzero"/></clipPath></defs><g clip-path="url(#30edb57862)"><path fill="#000000" d="M 347.953125 245.414062 C 347.953125 238.539062 345.660156 232.234375 341.359375 227.9375 C 337.921875 224.496094 333.621094 222.777344 328.75 222.777344 C 325.3125 222.777344 322.160156 223.925781 319.292969 225.644531 C 318.433594 223.636719 317 221.917969 315.566406 220.488281 C 311.554688 216.476562 305.820312 214.183594 300.089844 214.183594 C 295.503906 214.183594 291.492188 215.617188 288.050781 218.195312 C 286.90625 215.902344 285.472656 213.898438 283.464844 211.890625 C 279.167969 207.59375 273.148438 205.015625 266.558594 205.015625 C 262.832031 205.015625 259.105469 206.160156 255.953125 207.878906 L 256.238281 169.199219 C 256.238281 158.023438 246.496094 148.28125 233.882812 147.421875 C 233.597656 147.421875 233.308594 147.421875 233.308594 147.421875 C 219.554688 147.996094 207.800781 159.171875 207.800781 172.0625 L 207.515625 278.078125 C 204.363281 273.78125 200.636719 270.054688 195.476562 267.761719 C 189.460938 265.183594 182.867188 266.332031 177.707031 270.054688 C 172.261719 274.066406 169.683594 280.371094 170.257812 286.675781 C 175.414062 335.382812 210.667969 370.625 254.519531 370.625 C 254.804688 370.625 254.804688 370.625 255.09375 370.625 L 307.542969 370.339844 C 332.476562 370.054688 347.667969 346.84375 347.953125 324.496094 C 347.953125 324.496094 347.953125 324.210938 347.953125 324.210938 C 347.953125 299.855469 347.953125 245.988281 347.953125 245.414062 Z M 336.488281 325.070312 C 336.203125 341.6875 325.3125 358.878906 307.542969 358.878906 L 255.09375 359.453125 C 254.804688 359.453125 254.804688 359.453125 254.519531 359.453125 C 216.972656 359.453125 186.308594 328.507812 181.722656 285.527344 C 181.433594 282.949219 182.582031 280.65625 184.585938 279.222656 C 185.445312 278.652344 188.027344 276.933594 191.179688 278.363281 C 195.765625 280.371094 198.628906 284.953125 202.070312 290.683594 C 207.230469 299.28125 213.820312 310.167969 229.296875 310.167969 C 229.296875 310.167969 229.585938 310.167969 229.585938 310.167969 C 232.738281 310.167969 235.316406 307.589844 235.316406 304.4375 C 235.316406 301.285156 232.738281 298.707031 229.585938 298.707031 C 229.585938 298.707031 229.585938 298.707031 229.296875 298.707031 C 224.710938 298.707031 221.558594 297.277344 218.980469 294.410156 L 219.265625 172.0625 C 219.265625 166.046875 225.285156 159.171875 233.308594 158.882812 C 239.902344 159.457031 244.773438 164.039062 244.773438 169.199219 L 244.488281 225.359375 C 244.488281 226.21875 244.203125 227.078125 244.203125 228.222656 L 243.914062 261.460938 C 243.914062 263.753906 245.347656 266.042969 247.640625 266.902344 C 249.359375 267.761719 251.367188 267.476562 253.085938 266.332031 C 254.804688 265.183594 255.664062 263.464844 255.664062 261.460938 L 255.953125 226.21875 C 256.8125 220.773438 261.398438 216.761719 266.558594 216.476562 C 269.996094 216.476562 273.148438 217.621094 275.15625 219.914062 C 277.160156 221.917969 278.308594 224.785156 278.308594 227.9375 L 278.308594 237.105469 C 278.308594 237.105469 278.308594 237.105469 278.308594 237.390625 L 278.019531 260.601562 C 278.019531 263.753906 280.601562 266.332031 283.753906 266.332031 C 286.90625 266.332031 289.484375 263.753906 289.484375 260.601562 L 289.773438 237.105469 C 289.773438 231.375 293.785156 225.359375 299.804688 225.359375 C 302.667969 225.359375 304.960938 226.21875 306.96875 228.222656 C 308.972656 230.226562 309.835938 232.808594 309.835938 235.960938 L 309.546875 260.027344 C 309.546875 263.179688 312.128906 265.757812 315.28125 265.757812 C 318.433594 265.757812 321.011719 263.179688 321.011719 260.027344 L 321.011719 244.554688 C 321.011719 242.835938 321.296875 233.667969 327.890625 233.667969 C 329.609375 233.667969 331.042969 234.238281 332.191406 235.671875 C 334.195312 237.679688 335.628906 241.402344 335.628906 245.128906 C 336.488281 245.988281 336.488281 301 336.488281 325.070312 Z M 336.488281 325.070312 " fill-opacity="1" fill-rule="nonzero"/></g><g clip-path="url(#4fb13d879a)"><path fill="#000000" d="M 180 256.300781 L 67.078125 256.300781 L 67.078125 230.800781 L 85.132812 230.800781 C 87.714844 239.109375 95.164062 244.839844 104.335938 244.839844 C 113.507812 244.839844 120.960938 238.824219 123.539062 230.800781 L 196.339844 230.800781 L 196.339844 219.339844 L 123.539062 219.339844 C 121.246094 210.746094 113.507812 204.726562 104.335938 204.726562 C 95.164062 204.726562 87.425781 210.746094 85.132812 219.339844 L 67.078125 219.339844 L 67.078125 170.34375 L 85.132812 170.34375 C 87.714844 178.652344 95.164062 184.671875 104.335938 184.671875 C 113.507812 184.671875 120.960938 178.652344 123.539062 170.34375 L 136.722656 170.34375 C 139.304688 178.652344 146.753906 184.671875 155.925781 184.671875 C 165.097656 184.671875 172.550781 178.652344 175.128906 170.34375 L 196.625 170.34375 C 196.910156 166.332031 197.769531 162.609375 199.492188 158.882812 L 175.414062 158.882812 C 172.835938 150.574219 165.382812 144.558594 156.214844 144.558594 C 147.042969 144.558594 139.589844 150.574219 137.011719 158.882812 L 123.828125 158.882812 C 121.246094 150.574219 113.796875 144.558594 104.625 144.558594 C 95.453125 144.558594 88 150.574219 85.421875 158.882812 L 67.078125 158.882812 L 67.078125 110.175781 L 171.117188 110.175781 C 173.695312 118.484375 181.148438 124.5 190.320312 124.5 C 199.492188 124.5 206.941406 118.484375 209.523438 110.175781 L 225.570312 110.175781 C 228.152344 118.484375 235.601562 124.5 244.773438 124.5 C 253.945312 124.5 261.398438 118.484375 263.976562 110.175781 L 279.167969 110.175781 L 279.167969 158.882812 L 265.984375 158.882812 C 267.128906 162.320312 267.988281 165.761719 267.703125 169.484375 L 267.703125 170.34375 L 279.167969 170.34375 L 279.167969 195.84375 C 283.464844 197.277344 287.191406 199.855469 290.632812 203.007812 L 290.632812 17.054688 C 290.632812 16.195312 291.203125 15.621094 292.066406 15.621094 L 306.109375 15.621094 C 306.96875 15.621094 307.542969 16.195312 307.542969 17.054688 L 307.542969 203.296875 C 311.554688 204.15625 315.566406 205.875 319.003906 208.453125 L 319.003906 17.054688 C 319.003906 9.890625 313.273438 4.160156 306.109375 4.160156 L 292.066406 4.160156 C 284.898438 4.160156 279.167969 9.890625 279.167969 17.054688 L 279.167969 41.121094 L 235.316406 41.121094 C 232.738281 33.097656 225 27.082031 216.113281 27.082031 C 207.230469 27.082031 199.492188 33.097656 196.910156 41.121094 L 181.433594 41.121094 C 180 31.664062 171.691406 24.214844 161.660156 24.214844 C 151.628906 24.214844 143.316406 31.664062 141.882812 41.121094 L 126.691406 41.121094 C 124.113281 33.097656 116.375 27.082031 107.488281 27.082031 C 98.605469 27.082031 90.867188 33.097656 88.285156 41.121094 L 67.078125 41.121094 L 67.078125 17.054688 C 67.078125 9.890625 61.347656 4.160156 54.179688 4.160156 L 40.136719 4.160156 C 32.683594 4.160156 26.953125 9.890625 26.953125 17.054688 L 26.953125 262.03125 C 26.953125 265.183594 29.53125 267.761719 32.683594 267.761719 L 164.238281 267.761719 C 165.957031 265.183594 168.25 262.890625 170.828125 260.886719 C 173.695312 258.882812 176.847656 257.449219 180 256.300781 Z M 104.335938 216.1875 C 109.210938 216.1875 112.933594 219.914062 112.933594 224.785156 C 112.933594 229.65625 109.210938 233.378906 104.335938 233.378906 C 99.464844 233.378906 95.738281 229.65625 95.738281 224.785156 C 95.738281 219.914062 99.464844 216.1875 104.335938 216.1875 Z M 155.925781 156.019531 C 160.796875 156.019531 164.523438 159.742188 164.523438 164.613281 C 164.523438 169.484375 160.796875 173.210938 155.925781 173.210938 C 151.054688 173.210938 147.328125 169.484375 147.328125 164.613281 C 147.328125 159.742188 151.054688 156.019531 155.925781 156.019531 Z M 104.335938 156.019531 C 109.210938 156.019531 112.933594 159.742188 112.933594 164.613281 C 112.933594 169.484375 109.210938 173.210938 104.335938 173.210938 C 99.464844 173.210938 95.738281 169.484375 95.738281 164.613281 C 95.738281 159.742188 99.464844 156.019531 104.335938 156.019531 Z M 190.320312 113.039062 C 185.445312 113.039062 181.722656 109.316406 181.722656 104.445312 C 181.722656 99.574219 185.445312 95.847656 190.320312 95.847656 C 195.191406 95.847656 198.917969 99.574219 198.917969 104.445312 C 198.917969 109.316406 195.191406 113.039062 190.320312 113.039062 Z M 244.773438 113.039062 C 239.902344 113.039062 236.175781 109.316406 236.175781 104.445312 C 236.175781 99.574219 239.902344 95.847656 244.773438 95.847656 C 249.648438 95.847656 253.371094 99.574219 253.371094 104.445312 C 253.371094 109.316406 249.648438 113.039062 244.773438 113.039062 Z M 216.113281 38.542969 C 220.984375 38.542969 224.710938 42.265625 224.710938 47.136719 C 224.710938 52.007812 220.984375 55.734375 216.113281 55.734375 C 211.242188 55.734375 207.515625 52.007812 207.515625 47.136719 C 207.515625 42.265625 211.242188 38.542969 216.113281 38.542969 Z M 161.660156 35.675781 C 166.53125 35.675781 170.257812 39.402344 170.257812 44.273438 C 170.257812 49.144531 166.53125 52.867188 161.660156 52.867188 C 156.785156 52.867188 153.058594 49.144531 153.058594 44.273438 C 153.058594 39.402344 156.785156 35.675781 161.660156 35.675781 Z M 107.488281 38.542969 C 112.363281 38.542969 116.089844 42.265625 116.089844 47.136719 C 116.089844 52.007812 112.363281 55.734375 107.488281 55.734375 C 102.617188 55.734375 98.890625 52.007812 98.890625 47.136719 C 98.890625 42.265625 102.617188 38.542969 107.488281 38.542969 Z M 88.285156 52.582031 C 90.578125 60.890625 98.316406 67.195312 107.488281 67.195312 C 116.660156 67.195312 124.398438 61.179688 126.691406 52.582031 L 143.601562 52.582031 C 146.753906 59.457031 153.632812 64.328125 161.660156 64.328125 C 169.683594 64.328125 176.5625 59.457031 179.714844 52.582031 L 196.625 52.582031 C 198.917969 60.890625 206.65625 67.195312 215.828125 67.195312 C 225 67.195312 232.738281 61.179688 235.03125 52.582031 L 279.167969 52.582031 L 279.167969 98.714844 L 263.976562 98.714844 C 261.398438 90.402344 253.945312 84.386719 244.773438 84.386719 C 235.601562 84.386719 228.152344 90.402344 225.570312 98.714844 L 209.523438 98.714844 C 206.941406 90.402344 199.492188 84.386719 190.320312 84.386719 C 181.148438 84.386719 173.695312 90.402344 171.117188 98.714844 L 67.078125 98.714844 L 67.078125 52.582031 Z M 38.417969 256.300781 L 38.417969 17.054688 C 38.417969 16.195312 38.992188 15.621094 39.851562 15.621094 L 53.894531 15.621094 C 55.039062 15.621094 55.613281 16.195312 55.613281 17.054688 L 55.613281 256.300781 Z M 38.417969 256.300781 " fill-opacity="1" fill-rule="nonzero"/></g></svg>