<svg xmlns="http://www.w3.org/2000/svg" xmlns:xlink="http://www.w3.org/1999/xlink" width="500" zoomAndPan="magnify" viewBox="0 0 375 374.999991" height="500" preserveAspectRatio="xMidYMid meet" version="1.0"><defs><clipPath id="ba2ca16458"><path d="M 18.75 18.75 L 356.25 18.75 L 356.25 356.25 L 18.75 356.25 Z M 18.75 18.75 " clip-rule="nonzero"/></clipPath></defs><g clip-path="url(#ba2ca16458)"><path fill="#1c1c1b" d="M 187.5 356.25 C 94.445312 356.25 18.75 280.554688 18.75 187.5 C 18.75 94.445312 94.445312 18.75 187.5 18.75 C 223.425781 18.75 257.730469 29.902344 286.707031 50.996094 C 291.429688 54.402344 292.445312 61.019531 289.042969 65.714844 C 285.609375 70.414062 279.015625 71.457031 274.292969 68.050781 C 248.96875 49.59375 218.949219 39.84375 187.5 39.84375 C 106.089844 39.84375 39.84375 106.089844 39.84375 187.5 C 39.84375 268.910156 106.089844 335.15625 187.5 335.15625 C 268.910156 335.15625 335.15625 268.910156 335.15625 187.5 C 335.15625 163 329.03125 138.75 317.46875 117.351562 C 314.695312 112.242188 316.589844 105.84375 321.726562 103.070312 C 326.835938 100.296875 333.261719 102.191406 336.007812 107.328125 C 349.246094 131.800781 356.25 159.511719 356.25 187.5 C 356.25 280.554688 280.554688 356.25 187.5 356.25 " fill-opacity="1" fill-rule="nonzero"/></g><path fill="#1c1c1b" d="M 307.882812 95.378906 C 304.890625 95.378906 301.921875 94.117188 299.835938 91.671875 L 297.941406 89.5 C 294.09375 85.136719 294.507812 78.460938 298.847656 74.617188 C 303.214844 70.742188 309.886719 71.15625 313.734375 75.523438 L 315.902344 77.992188 C 319.691406 82.441406 319.144531 89.089844 314.722656 92.878906 C 312.714844 94.554688 310.300781 95.378906 307.882812 95.378906 " fill-opacity="1" fill-rule="nonzero"/><path fill="#1c1c1b" d="M 202.910156 246.414062 L 195.847656 246.414062 L 195.847656 198.046875 L 202.910156 198.046875 C 216.257812 198.046875 227.105469 208.894531 227.105469 222.246094 C 227.105469 235.566406 216.257812 246.414062 202.910156 246.414062 Z M 167.695312 176.953125 C 154.375 176.953125 143.527344 166.105469 143.527344 152.753906 C 143.527344 139.433594 154.375 128.585938 167.695312 128.585938 L 174.753906 128.585938 L 174.753906 176.953125 Z M 202.910156 176.953125 L 195.847656 176.953125 L 195.847656 128.585938 L 202.910156 128.585938 C 216.257812 128.585938 227.105469 139.433594 227.105469 152.753906 C 227.105469 158.605469 231.828125 163.300781 237.652344 163.300781 C 243.476562 163.300781 248.199219 158.605469 248.199219 152.753906 C 248.199219 127.816406 227.875 107.492188 202.910156 107.492188 L 195.847656 107.492188 L 195.847656 84.859375 C 195.847656 79.011719 191.125 74.3125 185.300781 74.3125 C 179.480469 74.3125 174.753906 79.011719 174.753906 84.859375 L 174.753906 107.492188 L 167.695312 107.492188 C 142.730469 107.492188 122.433594 127.816406 122.433594 152.753906 C 122.433594 177.722656 142.730469 198.046875 167.695312 198.046875 L 174.753906 198.046875 L 174.753906 246.414062 L 167.695312 246.414062 C 154.375 246.414062 143.527344 235.566406 143.527344 222.246094 C 143.527344 216.394531 138.804688 211.699219 132.980469 211.699219 C 127.15625 211.699219 122.433594 216.394531 122.433594 222.246094 C 122.433594 247.183594 142.730469 267.507812 167.695312 267.507812 L 174.753906 267.507812 L 174.753906 290.167969 C 174.753906 295.988281 179.480469 300.714844 185.300781 300.714844 C 191.125 300.714844 195.847656 295.988281 195.847656 290.167969 L 195.847656 267.507812 L 202.910156 267.507812 C 227.875 267.507812 248.199219 247.183594 248.199219 222.246094 C 248.199219 197.277344 227.875 176.953125 202.910156 176.953125 " fill-opacity="1" fill-rule="nonzero"/></svg>