<svg xmlns="http://www.w3.org/2000/svg" xmlns:xlink="http://www.w3.org/1999/xlink" width="500" zoomAndPan="magnify" viewBox="0 0 375 374.999991" height="500" preserveAspectRatio="xMidYMid meet" version="1.0"><defs><clipPath id="70f4bb8ba6"><path d="M 29.386719 6.984375 L 337.636719 6.984375 L 337.636719 356.484375 L 29.386719 356.484375 Z M 29.386719 6.984375 " clip-rule="nonzero"/></clipPath></defs><g clip-path="url(#70f4bb8ba6)"><path fill="#000000" d="M 102.519531 121.476562 C 104.738281 123.644531 104.792969 127.199219 102.625 129.417969 L 84.3125 148.335938 C 82.144531 150.554688 78.589844 150.609375 76.371094 148.441406 L 70.980469 143.210938 C 68.761719 141.0625 68.699219 137.515625 70.847656 135.285156 C 72.996094 133.066406 76.542969 133.007812 78.773438 135.15625 L 80.144531 136.484375 L 94.570312 121.574219 C 96.734375 119.363281 100.292969 119.308594 102.519531 121.476562 Z M 55.234375 160.820312 L 55.234375 109.097656 C 55.234375 105.988281 57.761719 103.464844 60.871094 103.464844 L 112.601562 103.464844 C 115.710938 103.464844 118.238281 105.988281 118.238281 109.097656 L 118.238281 160.828125 C 118.238281 163.9375 115.710938 166.464844 112.601562 166.464844 L 60.871094 166.464844 C 57.761719 166.453125 55.234375 163.9375 55.234375 160.820312 Z M 66.507812 155.1875 L 106.964844 155.1875 L 106.964844 114.722656 L 66.507812 114.722656 Z M 135.9375 114.734375 L 259.8125 114.734375 C 262.921875 114.734375 265.445312 112.207031 265.445312 109.097656 C 265.445312 105.988281 262.921875 103.464844 259.8125 103.464844 L 135.9375 103.464844 C 132.828125 103.464844 130.304688 105.988281 130.304688 109.097656 C 130.304688 112.207031 132.828125 114.734375 135.9375 114.734375 Z M 135.9375 140.597656 L 232.34375 140.597656 C 235.453125 140.597656 237.976562 138.074219 237.976562 134.964844 C 237.976562 131.855469 235.453125 129.328125 232.34375 129.328125 L 135.9375 129.328125 C 132.828125 129.328125 130.304688 131.855469 130.304688 134.964844 C 130.304688 138.074219 132.828125 140.597656 135.9375 140.597656 Z M 202.664062 245.238281 L 202.664062 263.007812 C 202.664062 265.921875 200.398438 268.394531 197.445312 268.613281 L 180.347656 269.914062 C 179.851562 271.558594 179.273438 273.148438 178.636719 274.683594 C 177.988281 276.25 177.265625 277.777344 176.460938 279.289062 L 187.371094 292 C 189.558594 294.199219 189.558594 297.753906 187.355469 299.949219 L 174.792969 312.507812 C 172.730469 314.554688 169.402344 314.710938 167.15625 312.796875 L 154.136719 301.617188 C 152.652344 302.402344 151.113281 303.128906 149.53125 303.78125 L 149.507812 303.78125 C 147.960938 304.421875 146.378906 304.988281 144.753906 305.484375 L 143.476562 322.320312 C 143.398438 325.359375 140.910156 327.804688 137.84375 327.804688 L 120.070312 327.804688 C 117.152344 327.804688 114.679688 325.550781 114.464844 322.589844 L 113.160156 305.484375 C 111.519531 304.988281 109.929688 304.410156 108.390625 303.773438 C 106.800781 303.109375 105.261719 302.386719 103.785156 301.597656 L 91.082031 312.507812 C 88.882812 314.691406 85.324219 314.691406 83.132812 312.492188 L 70.558594 299.929688 C 68.515625 297.867188 68.359375 294.539062 70.273438 292.296875 L 81.453125 279.269531 C 80.652344 277.769531 79.917969 276.230469 79.28125 274.667969 C 78.640625 273.128906 78.066406 271.53125 77.566406 269.898438 L 60.730469 268.621094 C 57.691406 268.542969 55.242188 266.054688 55.242188 262.988281 L 55.242188 245.222656 C 55.242188 242.304688 57.507812 239.832031 60.460938 239.613281 L 77.566406 238.3125 C 78.039062 236.792969 78.5625 235.296875 79.15625 233.847656 L 79.28125 233.542969 C 79.925781 231.976562 80.652344 230.449219 81.453125 228.9375 L 70.542969 216.226562 C 68.359375 214.027344 68.359375 210.472656 70.558594 208.277344 L 83.125 195.71875 C 85.183594 193.671875 88.515625 193.515625 90.757812 195.429688 L 103.785156 206.609375 C 105.175781 205.878906 106.609375 205.195312 108.101562 204.566406 L 108.398438 204.4375 C 109.9375 203.796875 111.535156 203.222656 113.171875 202.722656 L 114.445312 185.890625 C 114.523438 182.851562 117.015625 180.40625 120.082031 180.40625 L 137.851562 180.40625 C 140.769531 180.40625 143.242188 182.667969 143.460938 185.621094 L 144.761719 202.722656 C 146.40625 203.222656 147.996094 203.796875 149.53125 204.4375 C 151.097656 205.089844 152.636719 205.816406 154.128906 206.609375 L 166.839844 195.691406 C 169.042969 193.507812 172.597656 193.507812 174.792969 195.710938 L 187.355469 208.269531 C 189.398438 210.332031 189.558594 213.660156 187.644531 215.90625 L 176.453125 228.929688 C 177.195312 230.335938 177.882812 231.769531 178.496094 233.234375 L 178.628906 233.53125 C 179.265625 235.070312 179.839844 236.667969 180.339844 238.300781 L 197.167969 239.578125 C 200.226562 239.683594 202.664062 242.171875 202.664062 245.238281 Z M 191.390625 250.453125 L 175.527344 249.246094 C 172.851562 249.046875 170.753906 247.011719 170.378906 244.46875 C 169.855469 242.234375 169.140625 240.023438 168.246094 237.867188 L 168.144531 237.585938 C 167.21875 235.394531 166.117188 233.304688 164.867188 231.332031 C 163.511719 229.199219 163.773438 226.492188 165.339844 224.667969 L 175.71875 212.566406 L 170.511719 207.363281 L 158.417969 217.75 C 156.417969 219.460938 153.5625 219.523438 151.507812 218.054688 C 149.53125 216.8125 147.4375 215.730469 145.234375 214.820312 L 145.21875 214.8125 C 142.9375 213.878906 140.605469 213.136719 138.234375 212.601562 C 135.753906 212.054688 134.023438 209.949219 133.851562 207.535156 L 132.628906 191.664062 L 125.289062 191.664062 L 124.082031 207.535156 C 123.882812 210.210938 121.847656 212.304688 119.304688 212.683594 C 117.066406 213.207031 114.855469 213.921875 112.707031 214.8125 L 112.425781 214.917969 C 110.296875 215.816406 108.207031 216.925781 106.171875 218.21875 C 103.917969 219.644531 101.035156 219.277344 99.207031 217.484375 L 87.40625 207.351562 L 82.199219 212.558594 L 92.585938 224.648438 C 94.296875 226.648438 94.359375 229.507812 92.890625 231.558594 C 91.667969 233.507812 90.585938 235.613281 89.660156 237.847656 L 89.546875 238.109375 C 88.664062 240.277344 87.957031 242.53125 87.449219 244.828125 C 86.898438 247.308594 84.792969 249.039062 82.382812 249.210938 L 66.515625 250.4375 L 66.515625 257.773438 L 82.382812 258.980469 C 85.054688 259.179688 87.152344 261.214844 87.527344 263.757812 C 88.050781 265.992188 88.769531 268.203125 89.660156 270.351562 C 90.628906 272.675781 91.765625 274.867188 93.046875 276.886719 C 94.410156 279.019531 94.140625 281.726562 92.578125 283.550781 L 82.199219 295.648438 L 87.40625 300.855469 L 99.496094 290.46875 C 101.417969 288.828125 104.128906 288.707031 106.164062 289.996094 C 108.277344 291.324219 110.460938 292.480469 112.679688 293.394531 L 112.699219 293.40625 C 114.980469 294.339844 117.3125 295.082031 119.679688 295.613281 C 122.160156 296.164062 123.890625 298.269531 124.066406 300.679688 L 125.289062 316.554688 L 132.628906 316.554688 L 133.832031 300.679688 C 134.035156 298.007812 136.070312 295.910156 138.613281 295.535156 C 140.875 295.011719 143.085938 294.296875 145.21875 293.414062 C 147.472656 292.46875 149.65625 291.324219 151.742188 289.996094 C 153.996094 288.574219 156.882812 288.941406 158.707031 290.730469 L 170.511719 300.863281 L 175.71875 295.660156 L 165.328125 283.570312 C 163.617188 281.570312 163.554688 278.710938 165.023438 276.660156 C 166.246094 274.710938 167.332031 272.605469 168.257812 270.371094 C 169.199219 268.097656 169.941406 265.757812 170.476562 263.390625 C 171.027344 260.910156 173.132812 259.179688 175.542969 259.003906 L 191.410156 257.78125 L 191.410156 250.453125 Z M 151.042969 232.03125 C 156.699219 237.683594 160.199219 245.492188 160.199219 254.121094 C 160.199219 262.71875 156.707031 270.507812 151.054688 276.179688 L 151.027344 276.203125 C 145.367188 281.855469 137.554688 285.359375 128.957031 285.359375 C 120.335938 285.359375 112.523438 281.867188 106.863281 276.203125 C 101.210938 270.554688 97.707031 262.742188 97.707031 254.113281 C 97.707031 245.5 101.210938 237.699219 106.863281 232.046875 L 106.886719 232.023438 C 112.539062 226.371094 120.351562 222.867188 128.957031 222.867188 C 137.582031 222.882812 145.390625 226.378906 151.042969 232.03125 Z M 148.921875 254.121094 C 148.921875 248.609375 146.683594 243.613281 143.066406 239.996094 C 139.460938 236.390625 134.460938 234.144531 128.941406 234.144531 C 123.410156 234.144531 118.414062 236.378906 114.804688 239.980469 C 111.203125 243.597656 108.96875 248.59375 108.96875 254.113281 C 108.96875 259.625 111.203125 264.621094 114.820312 268.238281 C 118.4375 271.855469 123.425781 274.089844 128.949219 274.089844 C 134.480469 274.089844 139.476562 271.863281 143.078125 268.265625 L 143.101562 268.238281 C 146.695312 264.648438 148.921875 259.652344 148.921875 254.121094 Z M 306.046875 258.253906 L 259.890625 305.957031 L 249.125 295.546875 C 246.90625 293.394531 243.351562 293.457031 241.203125 295.675781 C 239.050781 297.894531 239.113281 301.449219 241.332031 303.597656 L 256.125 317.90625 C 258.34375 320.054688 261.898438 319.996094 264.046875 317.777344 L 314.101562 266.046875 C 316.25 263.828125 316.191406 260.273438 313.972656 258.121094 C 311.742188 255.972656 308.195312 256.035156 306.046875 258.253906 Z M 337.542969 241.027344 L 337.542969 301.003906 L 337.527344 301.003906 L 337.527344 301.136719 C 336.460938 340.90625 310.230469 347.84375 284.765625 354.578125 L 280.457031 355.730469 C 280.246094 355.800781 280.046875 355.855469 279.828125 355.898438 L 278.777344 356.175781 C 277.816406 356.449219 276.777344 356.472656 275.746094 356.1875 L 275.074219 356.003906 L 35.15625 356.003906 C 32.046875 356.003906 29.523438 353.476562 29.523438 350.367188 L 29.546875 349.851562 L 29.960938 51.863281 C 29.960938 48.761719 32.476562 46.257812 35.566406 46.257812 L 35.566406 46.230469 L 86.878906 46.230469 L 86.878906 36.769531 C 86.878906 33.660156 89.40625 31.136719 92.515625 31.136719 L 126.851562 31.136719 C 129.527344 24.644531 133.910156 19.019531 139.441406 14.835938 C 145.960938 9.910156 154.050781 6.984375 162.789062 6.984375 C 171.523438 6.984375 179.625 9.910156 186.140625 14.835938 C 191.671875 19.011719 196.058594 24.636719 198.730469 31.128906 L 233.066406 31.128906 C 236.175781 31.128906 238.703125 33.652344 238.703125 36.761719 L 238.703125 46.222656 L 290.015625 46.222656 C 293.125 46.222656 295.648438 48.746094 295.648438 51.855469 L 295.648438 223.925781 C 297.511719 224.851562 299.460938 225.742188 301.476562 226.605469 C 312.03125 231.113281 323.878906 234.449219 332.136719 235.394531 C 335.140625 235.515625 337.542969 237.996094 337.542969 241.027344 Z M 139.476562 31.136719 L 186.105469 31.136719 C 184.316406 28.3125 182.027344 25.824219 179.359375 23.816406 C 174.75 20.332031 169 18.25 162.796875 18.25 C 156.582031 18.25 150.835938 20.332031 146.222656 23.816406 C 143.558594 25.824219 141.269531 28.304688 139.476562 31.136719 Z M 98.152344 42.40625 L 98.152344 61.324219 L 227.433594 61.324219 L 227.433594 51.863281 C 227.433594 51.855469 227.433594 51.855469 227.433594 51.847656 L 227.433594 42.40625 Z M 40.777344 344.742188 L 241.269531 344.742188 C 227.816406 337.578125 217.777344 325.671875 216.984375 301.703125 L 216.9375 300.996094 L 216.9375 241.019531 C 216.949219 238.179688 219.089844 235.734375 221.980469 235.429688 C 230.253906 234.546875 242.292969 231.175781 253.003906 226.605469 C 261.742188 222.875 269.371094 218.472656 272.8125 214.21875 L 273.144531 213.824219 L 273.386719 213.582031 C 273.84375 213.152344 274.359375 212.8125 274.898438 212.566406 L 275.058594 212.5 C 275.765625 212.203125 276.5 212.0625 277.234375 212.0625 C 277.964844 212.0625 278.699219 212.203125 279.398438 212.488281 L 279.574219 212.566406 C 280.125 212.820312 280.632812 213.152344 281.085938 213.582031 C 281.304688 213.78125 281.46875 213.992188 281.671875 214.21875 C 282.394531 215.109375 283.3125 216.019531 284.378906 216.917969 L 284.378906 57.5 L 238.703125 57.5 L 238.703125 66.960938 C 238.703125 70.070312 236.175781 72.59375 233.066406 72.59375 L 92.515625 72.59375 C 91.546875 72.59375 90.628906 72.347656 89.832031 71.914062 C 88.078125 70.960938 86.878906 69.097656 86.878906 66.960938 L 86.878906 57.5 L 41.175781 57.5 Z M 326.289062 301.003906 L 326.273438 245.882812 C 317.570312 244.339844 306.761719 241.089844 297.082031 236.957031 C 293.886719 235.59375 290.792969 234.109375 287.902344 232.554688 C 287.5 232.386719 287.121094 232.1875 286.78125 231.941406 C 283.171875 229.933594 279.914062 227.792969 277.242188 225.574219 C 272.191406 229.769531 265.089844 233.679688 257.398438 236.957031 C 247.71875 241.089844 236.910156 244.339844 228.210938 245.882812 L 228.199219 301.285156 C 229.222656 332.242188 251.222656 338.058594 272.574219 343.710938 L 276.4375 344.742188 L 278.035156 344.742188 L 281.898438 343.710938 C 303.328125 338.042969 325.390625 332.207031 326.289062 301.003906 Z M 326.289062 301.003906 " fill-opacity="1" fill-rule="nonzero"/></g></svg>