<svg xmlns="http://www.w3.org/2000/svg" xmlns:xlink="http://www.w3.org/1999/xlink" width="500" zoomAndPan="magnify" viewBox="0 0 375 374.999991" height="500" preserveAspectRatio="xMidYMid meet" version="1.0"><defs><clipPath id="28c6e548e2"><path d="M 14 12.722656 L 362.222656 12.722656 L 362.222656 288 L 14 288 Z M 14 12.722656 " clip-rule="nonzero"/></clipPath></defs><g clip-path="url(#28c6e548e2)"><path fill="#000000" d="M 312.691406 73.90625 L 312.691406 48.234375 L 287.019531 48.234375 L 287.019531 60.769531 L 258.578125 46.265625 L 258.578125 20.4375 L 232.828125 20.4375 L 232.828125 33.128906 L 189.480469 10.957031 L 146.136719 33.128906 L 146.136719 20.4375 L 120.425781 20.4375 L 120.425781 46.265625 L 91.984375 60.769531 L 91.984375 48.234375 L 66.3125 48.234375 L 66.3125 73.90625 L 14.570312 100.300781 L 14.570312 287.625 L 46.347656 287.625 L 46.347656 149.308594 L 332.617188 149.308594 L 332.617188 287.625 L 364.390625 287.625 L 364.390625 100.300781 Z M 312.691406 73.90625 " fill-opacity="1" fill-rule="nonzero"/></g><path fill="#000000" d="M 270.1875 245 C 281.636719 233.511719 284.929688 216.917969 280.070312 202.496094 L 251.828125 230.820312 L 225.957031 204.949219 L 254.238281 176.707031 C 239.816406 171.804688 223.226562 175.101562 211.738281 186.550781 C 200.609375 197.71875 197.195312 213.546875 201.371094 227.605469 L 193.941406 234.996094 L 193.296875 234.355469 L 179.238281 248.375 L 135.046875 204.144531 L 133.28125 193.738281 L 111.988281 178.234375 L 106.285156 184.019531 L 100.539062 189.761719 L 116.007812 210.972656 L 126.410156 212.78125 L 170.601562 256.972656 L 156.621094 270.992188 L 157.304688 271.675781 L 101.464844 327.515625 L 101.542969 327.59375 C 94.875 335.265625 95.195312 346.917969 102.507812 354.230469 C 109.820312 361.539062 121.511719 361.863281 129.183594 355.191406 L 129.261719 355.234375 L 185.0625 299.472656 L 234.273438 348.644531 C 244.398438 358.769531 260.789062 358.769531 270.910156 348.683594 C 281.035156 338.5625 281.035156 322.089844 270.910156 311.96875 L 221.742188 262.796875 L 229.132812 255.363281 C 243.191406 259.542969 259.019531 256.128906 270.1875 245 Z M 270.1875 245 " fill-opacity="1" fill-rule="nonzero"/></svg>