<svg xmlns="http://www.w3.org/2000/svg" xmlns:xlink="http://www.w3.org/1999/xlink" width="500" zoomAndPan="magnify" viewBox="0 0 375 374.999991" height="500" preserveAspectRatio="xMidYMid meet" version="1.0"><defs><clipPath id="96bad9cbc3"><path d="M 6.203125 6.203125 L 368.453125 6.203125 L 368.453125 368.453125 L 6.203125 368.453125 Z M 6.203125 6.203125 " clip-rule="nonzero"/></clipPath></defs><g clip-path="url(#96bad9cbc3)"><path fill="#000000" d="M 155.660156 360.402344 L 218.753906 360.402344 L 218.753906 324.257812 C 218.753906 322.464844 219.972656 320.890625 221.71875 320.4375 C 234.089844 317.242188 245.957031 312.316406 256.996094 305.808594 C 258.546875 304.894531 260.523438 305.140625 261.800781 306.417969 L 287.363281 331.976562 L 331.976562 287.363281 L 306.414062 261.804688 C 305.136719 260.527344 304.886719 258.550781 305.800781 256.992188 C 312.320312 245.945312 317.242188 234.085938 320.433594 221.722656 C 320.882812 219.976562 322.460938 218.753906 324.261719 218.753906 L 360.398438 218.753906 L 360.398438 155.664062 L 324.261719 155.664062 C 322.457031 155.664062 320.882812 154.445312 320.429688 152.699219 C 317.234375 140.328125 312.3125 128.457031 305.800781 117.417969 C 304.886719 115.871094 305.136719 113.894531 306.414062 112.617188 L 331.976562 87.050781 L 287.363281 42.433594 L 261.796875 68.003906 C 260.523438 69.28125 258.546875 69.527344 256.992188 68.613281 C 245.949219 62.097656 234.078125 57.171875 221.71875 53.984375 C 219.972656 53.53125 218.753906 51.957031 218.753906 50.152344 L 218.753906 14.015625 L 155.660156 14.015625 L 155.660156 50.152344 C 155.660156 51.957031 154.441406 53.53125 152.695312 53.984375 C 140.332031 57.179688 128.464844 62.097656 117.417969 68.613281 C 115.863281 69.527344 113.886719 69.28125 112.613281 68.003906 L 87.050781 42.433594 L 42.433594 87.058594 L 68 112.617188 C 69.273438 113.894531 69.527344 115.871094 68.609375 117.417969 C 62.097656 128.464844 57.175781 140.335938 53.980469 152.699219 C 53.53125 154.445312 51.957031 155.667969 50.152344 155.667969 L 14.015625 155.664062 L 14.015625 218.753906 L 50.152344 218.753906 C 51.957031 218.753906 53.53125 219.976562 53.980469 221.722656 C 57.179688 234.09375 62.101562 245.964844 68.609375 257 C 69.527344 258.550781 69.277344 260.527344 68 261.804688 L 42.4375 287.363281 L 87.050781 331.976562 L 112.613281 306.417969 C 113.890625 305.140625 115.867188 304.894531 117.417969 305.808594 C 128.46875 312.324219 140.335938 317.242188 152.695312 320.4375 C 154.441406 320.890625 155.660156 322.464844 155.660156 324.269531 Z M 222.707031 368.304688 L 151.707031 368.304688 C 149.523438 368.304688 147.75 366.542969 147.75 364.351562 L 147.75 327.289062 C 136.722656 324.195312 126.089844 319.785156 116.066406 314.152344 L 89.84375 340.371094 C 88.300781 341.910156 85.796875 341.910156 84.253906 340.371094 L 34.046875 290.164062 C 33.304688 289.421875 32.890625 288.417969 32.890625 287.363281 C 32.890625 286.316406 33.304688 285.3125 34.046875 284.570312 L 60.265625 258.351562 C 54.640625 248.335938 50.230469 237.703125 47.125 226.664062 L 10.0625 226.664062 C 7.878906 226.664062 6.109375 224.890625 6.109375 222.710938 L 6.109375 151.710938 C 6.109375 149.527344 7.878906 147.757812 10.0625 147.757812 L 47.125 147.757812 C 50.226562 136.726562 54.636719 126.09375 60.265625 116.070312 L 34.046875 89.847656 C 32.503906 88.300781 32.503906 85.804688 34.046875 84.257812 L 84.253906 34.050781 C 85.796875 32.507812 88.300781 32.507812 89.84375 34.050781 L 116.0625 60.269531 C 126.085938 54.636719 136.722656 50.226562 147.75 47.121094 L 147.75 10.0625 C 147.75 7.878906 149.523438 6.109375 151.707031 6.109375 L 222.707031 6.109375 C 224.890625 6.109375 226.660156 7.878906 226.660156 10.0625 L 226.660156 47.121094 C 237.691406 50.226562 248.324219 54.636719 258.347656 60.269531 L 284.566406 34.050781 C 285.308594 33.308594 286.316406 32.898438 287.363281 32.898438 C 288.414062 32.898438 289.417969 33.308594 290.160156 34.050781 L 340.363281 84.257812 C 341.910156 85.804688 341.910156 88.300781 340.363281 89.851562 L 314.144531 116.070312 C 319.773438 126.085938 324.183594 136.71875 327.289062 147.757812 L 364.351562 147.757812 C 366.535156 147.757812 368.304688 149.527344 368.304688 151.710938 L 368.304688 222.710938 C 368.304688 224.890625 366.535156 226.664062 364.351562 226.664062 L 327.289062 226.664062 C 324.191406 237.691406 319.777344 248.328125 314.144531 258.351562 L 340.363281 284.570312 C 341.105469 285.3125 341.523438 286.320312 341.523438 287.363281 C 341.523438 288.417969 341.105469 289.425781 340.363281 290.164062 L 290.160156 340.371094 C 289.417969 341.113281 288.410156 341.523438 287.363281 341.523438 C 286.316406 341.523438 285.308594 341.113281 284.566406 340.371094 L 258.351562 314.152344 C 248.328125 319.777344 237.699219 324.183594 226.660156 327.289062 L 226.660156 364.351562 C 226.660156 366.542969 224.890625 368.304688 222.707031 368.304688 Z M 222.707031 368.304688 " fill-opacity="1" fill-rule="evenodd"/></g><path fill="#000000" d="M 187.207031 75.3125 C 125.503906 75.3125 75.304688 125.511719 75.304688 187.207031 C 75.304688 248.914062 125.503906 299.113281 187.207031 299.113281 C 248.910156 299.109375 299.105469 248.914062 299.105469 187.207031 C 299.109375 125.507812 248.910156 75.3125 187.207031 75.3125 Z M 187.207031 307.019531 C 121.144531 307.019531 67.398438 253.269531 67.398438 187.207031 C 67.398438 121.144531 121.144531 67.402344 187.207031 67.402344 C 253.269531 67.402344 307.015625 121.144531 307.015625 187.207031 C 307.015625 253.269531 253.269531 307.019531 187.207031 307.019531 Z M 187.207031 307.019531 " fill-opacity="1" fill-rule="evenodd"/><path fill="#000000" d="M 116.59375 224.933594 L 116.601562 224.933594 Z M 235.054688 108.765625 C 228.109375 108.765625 221.285156 111.472656 216.214844 116.546875 C 209.042969 123.714844 206.582031 134.152344 209.792969 143.78125 C 210.296875 145.28125 209.855469 146.9375 208.679688 147.980469 L 119.230469 227.882812 C 119.175781 227.925781 119.117188 227.976562 119.0625 228.023438 C 115.371094 230.964844 113.101562 235.363281 112.835938 240.082031 C 112.570312 244.84375 114.285156 249.316406 117.664062 252.695312 C 121.039062 256.070312 125.53125 257.785156 130.285156 257.523438 C 135 257.257812 139.390625 254.992188 142.339844 251.292969 C 142.386719 251.246094 142.433594 251.1875 142.480469 251.128906 L 222.375 161.679688 C 223.429688 160.503906 225.078125 160.066406 226.578125 160.570312 C 236.207031 163.78125 246.644531 161.320312 253.816406 154.144531 C 259.59375 148.371094 262.308594 140.3125 261.4375 132.398438 L 250.675781 143.15625 C 249.730469 144.101562 248.367188 144.507812 247.058594 144.234375 L 232.308594 141.09375 C 230.78125 140.773438 229.585938 139.582031 229.261719 138.054688 L 226.128906 123.304688 C 225.851562 121.992188 226.253906 120.632812 227.203125 119.6875 L 237.960938 108.921875 C 236.992188 108.8125 236.023438 108.765625 235.054688 108.765625 Z M 129.367188 265.453125 C 122.910156 265.453125 116.667969 262.882812 112.070312 258.289062 C 107.152344 253.371094 104.554688 246.574219 104.941406 239.648438 C 105.328125 232.71875 108.640625 226.261719 114.039062 221.914062 L 201.550781 143.746094 C 198.585938 131.992188 201.945312 119.628906 210.621094 110.957031 C 220.160156 101.417969 234.484375 98.3125 247.121094 103.039062 C 248.382812 103.507812 249.316406 104.585938 249.601562 105.90625 C 249.886719 107.214844 249.484375 108.582031 248.53125 109.539062 L 234.3125 123.757812 L 236.464844 133.894531 L 246.601562 136.046875 L 260.824219 121.828125 C 261.773438 120.871094 263.144531 120.476562 264.457031 120.757812 C 265.773438 121.046875 266.851562 121.976562 267.324219 123.238281 C 272.050781 135.871094 268.941406 150.207031 259.40625 159.738281 C 250.730469 168.417969 238.371094 171.78125 226.613281 168.804688 L 148.449219 256.320312 C 144.097656 261.714844 137.644531 265.035156 130.726562 265.421875 C 130.273438 265.445312 129.820312 265.453125 129.367188 265.453125 Z M 129.367188 265.453125 " fill-opacity="1" fill-rule="evenodd"/><path fill="#000000" d="M 131.773438 233.847656 C 130.558594 233.847656 129.347656 234.308594 128.421875 235.230469 C 127.523438 236.128906 127.03125 237.316406 127.03125 238.582031 C 127.03125 239.851562 127.523438 241.046875 128.421875 241.9375 C 130.269531 243.789062 133.28125 243.789062 135.128906 241.9375 C 136.023438 241.046875 136.515625 239.851562 136.515625 238.582031 C 136.515625 237.316406 136.023438 236.128906 135.128906 235.230469 C 134.203125 234.308594 132.988281 233.847656 131.773438 233.847656 Z M 131.773438 251.226562 C 128.535156 251.226562 125.296875 250 122.828125 247.527344 C 120.441406 245.140625 119.125 241.960938 119.125 238.582031 C 119.125 235.207031 120.441406 232.027344 122.832031 229.636719 C 127.761719 224.710938 135.789062 224.710938 140.71875 229.636719 C 143.109375 232.027344 144.425781 235.207031 144.425781 238.582031 C 144.425781 241.960938 143.109375 245.140625 140.71875 247.527344 C 138.253906 250 135.015625 251.226562 131.773438 251.226562 Z M 131.773438 251.226562 " fill-opacity="1" fill-rule="evenodd"/><path fill="#000000" d="M 219.15625 245.097656 L 237.570312 263.515625 C 238.957031 264.902344 240.8125 265.667969 242.792969 265.660156 C 244.773438 265.660156 246.628906 264.902344 248.011719 263.519531 L 257.65625 253.871094 C 260.535156 250.988281 260.535156 246.308594 257.65625 243.425781 L 239.246094 225.015625 L 238.914062 225.347656 C 234.582031 229.679688 227.53125 229.679688 223.199219 225.347656 C 221.105469 223.253906 219.953125 220.460938 219.953125 217.488281 C 219.953125 214.511719 221.105469 211.730469 223.199219 209.636719 L 223.53125 209.300781 L 217.972656 203.738281 L 197.886719 223.832031 L 203.445312 229.390625 L 203.777344 229.050781 C 205.871094 226.960938 208.660156 225.816406 211.632812 225.816406 C 214.609375 225.816406 217.398438 226.960938 219.488281 229.0625 C 221.582031 231.152344 222.734375 233.9375 222.734375 236.910156 C 222.734375 239.886719 221.582031 242.679688 219.488281 244.769531 Z M 242.792969 273.566406 C 238.699219 273.566406 234.859375 271.984375 231.976562 269.101562 L 210.769531 247.898438 C 209.226562 246.351562 209.226562 243.847656 210.769531 242.308594 L 213.898438 239.175781 C 214.496094 238.574219 214.828125 237.777344 214.828125 236.910156 C 214.828125 236.054688 214.496094 235.246094 213.898438 234.644531 C 213.300781 234.054688 212.496094 233.722656 211.632812 233.722656 C 210.773438 233.722656 209.96875 234.054688 209.371094 234.644531 L 206.242188 237.777344 C 204.695312 239.324219 202.191406 239.316406 200.648438 237.777344 L 189.5 226.632812 C 187.953125 225.082031 187.953125 222.578125 189.5 221.039062 L 215.179688 195.355469 C 215.921875 194.613281 216.925781 194.199219 217.972656 194.199219 C 219.023438 194.199219 220.027344 194.613281 220.769531 195.355469 L 231.921875 206.507812 C 232.660156 207.25 233.078125 208.253906 233.078125 209.300781 C 233.078125 210.351562 232.660156 211.359375 231.921875 212.101562 L 228.792969 215.230469 C 228.191406 215.824219 227.863281 216.632812 227.863281 217.488281 C 227.863281 218.351562 228.191406 219.160156 228.792969 219.753906 C 230.039062 221.003906 232.070312 221.003906 233.320312 219.753906 L 236.449219 216.632812 C 237.996094 215.082031 240.496094 215.082031 242.039062 216.632812 L 263.25 237.832031 C 269.210938 243.796875 269.210938 253.5 263.25 259.464844 L 253.605469 269.109375 C 250.726562 271.984375 246.886719 273.566406 242.792969 273.566406 Z M 242.792969 273.566406 " fill-opacity="1" fill-rule="evenodd"/><path fill="#000000" d="M 165.28125 185.394531 C 164.269531 185.394531 163.257812 185.015625 162.484375 184.242188 L 136.242188 157.996094 L 125.359375 154.867188 C 124.445312 154.613281 123.65625 154.027344 123.136719 153.226562 L 107.339844 128.976562 C 106.320312 127.410156 106.535156 125.34375 107.855469 124.019531 L 118.164062 113.714844 C 119.484375 112.394531 121.550781 112.171875 123.117188 113.195312 L 147.371094 128.992188 C 148.167969 129.511719 148.75 130.304688 149.015625 131.21875 L 152.140625 142.097656 L 178.964844 168.921875 C 180.507812 170.46875 180.507812 172.972656 178.964844 174.515625 C 177.421875 176.0625 174.917969 176.0625 173.371094 174.515625 L 145.828125 146.96875 C 145.351562 146.488281 145.003906 145.90625 144.820312 145.261719 L 141.820312 134.816406 L 121.488281 121.570312 L 115.714844 127.347656 L 128.957031 147.675781 L 139.40625 150.675781 C 140.050781 150.863281 140.636719 151.210938 141.109375 151.679688 L 168.078125 178.648438 C 169.621094 180.1875 169.621094 182.691406 168.078125 184.242188 C 167.304688 185.015625 166.292969 185.394531 165.28125 185.394531 Z M 210.289062 209.792969 C 209.277344 209.792969 208.261719 209.40625 207.492188 208.632812 L 195.84375 196.984375 C 194.300781 195.445312 194.300781 192.941406 195.84375 191.390625 C 197.390625 189.851562 199.894531 189.851562 201.4375 191.390625 L 213.082031 203.039062 C 214.628906 204.585938 214.628906 207.09375 213.082031 208.632812 C 212.3125 209.40625 211.300781 209.792969 210.289062 209.792969 Z M 199.980469 220.097656 C 198.96875 220.097656 197.957031 219.710938 197.183594 218.9375 L 186.121094 207.875 C 184.574219 206.335938 184.574219 203.832031 186.121094 202.28125 C 187.664062 200.742188 190.167969 200.742188 191.710938 202.28125 L 202.777344 213.351562 C 204.320312 214.890625 204.320312 217.398438 202.777344 218.9375 C 202.003906 219.710938 200.992188 220.097656 199.980469 220.097656 Z M 199.980469 220.097656 " fill-opacity="1" fill-rule="evenodd"/></svg>